<svg width="924" height="747" viewBox="0 0 924 747" fill="none" xmlns="http://www.w3.org/2000/svg">
<g clip-path="url(#clip0)">
<path d="M364 717.461H0V719.461H364V717.461Z" fill="#3F3D56"/>
<path d="M856.054 382.836L854.786 382.361C854.508 382.256 826.794 371.637 813.811 347.561C800.828 323.484 807.185 294.494 807.251 294.205L807.55 292.885L808.817 293.36C809.096 293.465 836.809 304.083 849.792 328.159C862.775 352.237 856.418 381.226 856.352 381.515L856.054 382.836ZM815.89 346.44C826.867 366.797 848.767 377.232 854.316 379.614C855.371 373.667 858.68 349.617 847.713 329.28C836.748 308.945 814.839 298.494 809.288 296.106C808.232 302.057 804.924 326.104 815.89 346.44Z" fill="#3F3D56"/>
<path d="M824.733 341.115C848.064 355.152 857.05 383.033 857.05 383.033C857.05 383.033 828.208 388.156 804.877 374.119C781.546 360.082 772.56 332.201 772.56 332.201C772.56 332.201 801.402 327.079 824.733 341.115Z" fill="#D0CDE1"/>
<path d="M852.5 461C833.676 460.979 815.629 453.492 802.319 440.181C789.009 426.871 781.521 408.824 781.5 390V389H923.5V390C923.479 408.824 915.991 426.871 902.681 440.181C889.371 453.492 871.324 460.979 852.5 461V461ZM783.507 391C783.77 409.125 791.154 426.418 804.064 439.143C816.974 451.867 834.373 459 852.5 459C870.627 459 888.026 451.867 900.936 439.143C913.846 426.418 921.23 409.125 921.493 391H783.507Z" fill="#3F3D56"/>
<path d="M852.5 448.5C864.965 448.5 876.92 443.548 885.734 434.734C894.548 425.92 899.5 413.965 899.5 401.5H805.5C805.5 413.965 810.452 425.92 819.266 434.734C828.08 443.548 840.035 448.5 852.5 448.5Z" fill="#8C6733"/>
<path d="M225.5 113C253.667 113 276.5 90.1665 276.5 62C276.5 33.8335 253.667 11 225.5 11C197.333 11 174.5 33.8335 174.5 62C174.5 90.1665 197.333 113 225.5 113Z" fill="#2F2E41"/>
<path d="M209 96.5C209 96.5 216 143.5 203 154.5C190 165.5 224 211.5 224 211.5L270 137.5C270 137.5 235 128.5 253 101.5L209 96.5Z" fill="#FBBEBE"/>
<path d="M192 234.5L185.01 261.94L178 289.5L154 287.5L165 241.5C165 241.5 163 198.5 162 188.5C161.761 186.665 161.9 184.799 162.41 183.02C162.753 181.777 163.476 180.672 164.479 179.862C165.481 179.051 166.713 178.575 168 178.5L192 234.5Z" fill="#575A89"/>
<path d="M219 617.5L189 623.5L186.08 597.99L175.57 505.98L173 483.5L208 473.5L207.77 481.5L207 508.5C208.509 513.771 209.628 519.145 210.35 524.58C211.827 534.816 212.379 545.165 212 555.5C211 583.5 219 617.5 219 617.5Z" fill="#FBBEBE"/>
<path d="M187 621.5L218 612.5L235 654.5L259 710.5C259 710.5 290 751.5 257 746.5C224 741.5 219 733.5 219 729.5V722.5L215 723.5L212 720.5L208 690.5C208 690.5 199 682.5 203 671.5L187 621.5Z" fill="#2F2E41"/>
<path opacity="0.2" d="M210.35 524.58L210 525.5C210 525.5 204.79 574.1 187.89 594.8L186.08 597.99L175.57 505.98L182.17 481.5H207.77L207 508.5C208.509 513.771 209.628 519.145 210.35 524.58V524.58Z" fill="black"/>
<path d="M224 481.5L207 525.5C207 525.5 201.79 574.104 184.895 594.802L163 633.5C163 633.5 137 624.5 139 624.5C141 624.5 156 573.5 156 573.5L170 515.5L179.169 481.5H224Z" fill="#FBBEBE"/>
<path d="M172 621.5L141 612.5L124 654.5L100 710.5C100 710.5 69 751.5 102 746.5C135 741.5 140 733.5 140 729.5V722.5L144 723.5L147 720.5L151 690.5C151 690.5 160 682.5 156 671.5L172 621.5Z" fill="#2F2E41"/>
<path d="M233.5 110C252.83 110 268.5 94.33 268.5 75C268.5 55.67 252.83 40 233.5 40C214.17 40 198.5 55.67 198.5 75C198.5 94.33 214.17 110 233.5 110Z" fill="#FBBEBE"/>
<path opacity="0.2" d="M192 234.5L185.01 261.94L179 261.5C178.838 259.051 178.156 256.665 177 254.5C175 250.5 177 253.5 181 249.5C185 245.5 182 247.5 179 242.5C176 237.5 181 226.5 181 226.5C175.4 222.5 168 178.5 168 178.5L192 234.5Z" fill="black"/>
<path d="M225 196.5L204 150.5L164 178.5C164 178.5 177 221.5 184 226.5C184 226.5 179 237.5 182 242.5C185 247.5 188 245.5 184 249.5C180 253.5 178 250.5 180 254.5C181.156 256.665 181.838 259.051 182 261.5L277 268.5L283 251.5C283 251.5 295 228.5 291 196.5L306 141.5L264 134.5L225 196.5Z" fill="#575A89"/>
<path d="M280.193 262.709C280.193 262.709 297 299.5 280 359.5C263 419.5 248 482.5 248 482.5L171 491.5L169 456.5L142 452.5C142 452.5 146 339.5 158 311.5C170 283.5 181.437 258.197 181.437 258.197L280.193 262.709Z" fill="#2F2E41"/>
<path opacity="0.2" d="M187.492 332.845L168.531 455.851L170.508 456.155L189.469 333.149L187.492 332.845Z" fill="black"/>
<path d="M259.843 47.1269C257.693 41.2527 253.338 36.4474 247.704 33.7306C240.728 30.4085 232.596 30.6751 224.949 31.7821C216.128 33.059 206.857 35.7278 201.162 42.5838C197.508 46.9818 195.752 52.6077 194.08 58.0753C192.147 64.3961 190.198 70.8124 190.027 77.4201C190.052 81.9962 190.506 86.56 191.382 91.0514C191.632 93.5203 192.334 95.9223 193.451 98.1377C194.702 100.274 196.986 101.991 199.457 101.836C197.02 97.4596 195.883 92.4787 196.178 87.4784C196.474 82.478 198.19 77.6657 201.125 73.6066C202.561 71.7724 204.121 70.038 205.793 68.4154L218.505 55.5071C222.405 51.5473 226.479 47.4716 231.685 45.5267C234.679 44.442 237.892 44.107 241.045 44.5509C244.198 44.9948 247.194 46.2041 249.772 48.0731C251.922 49.6821 253.709 51.7271 255.014 54.0742C255.946 55.7335 258.107 61.0783 258.107 61.0783C258.107 61.0783 260.611 49.2594 259.843 47.1269Z" fill="#2F2E41"/>
<path d="M199 82C200.933 82 202.5 78.866 202.5 75C202.5 71.134 200.933 68 199 68C197.067 68 195.5 71.134 195.5 75C195.5 78.866 197.067 82 199 82Z" fill="#FBBEBE"/>
<path d="M202.5 32C211.337 32 218.5 24.8366 218.5 16C218.5 7.16344 211.337 0 202.5 0C193.663 0 186.5 7.16344 186.5 16C186.5 24.8366 193.663 32 202.5 32Z" fill="#2F2E41"/>
<path d="M240.628 326.111H181.06C179.561 326.111 178.123 325.515 177.063 324.455C176.002 323.395 175.407 321.957 175.407 320.458L172.782 242.515C172.782 241.773 172.928 241.038 173.212 240.352C173.496 239.666 173.913 239.043 174.438 238.518C174.962 237.993 175.586 237.576 176.271 237.292C176.957 237.008 177.692 236.862 178.435 236.862H243.253C244.752 236.862 246.19 237.458 247.25 238.518C248.31 239.578 248.906 241.016 248.906 242.515L246.281 320.458C246.281 321.957 245.685 323.395 244.625 324.455C243.565 325.515 242.127 326.111 240.628 326.111V326.111Z" fill="#3F3D56"/>
<path d="M210.844 265.737C213.743 265.737 216.094 263.386 216.094 260.487C216.094 257.587 213.743 255.237 210.844 255.237C207.944 255.237 205.594 257.587 205.594 260.487C205.594 263.386 207.944 265.737 210.844 265.737Z" fill="#D0CDE1"/>
<path d="M282 262.5L248.328 266.387C248.328 266.387 191 263.5 205 280.5C219 297.5 251 283.5 251 283.5L293 281.5L282 262.5Z" fill="#FBBEBE"/>
<path d="M159.89 271.971C159.89 271.971 148.77 276.902 154.215 285.951C159.66 295.001 185.419 304.155 188.766 290.695C192.113 277.236 172.83 272.99 168.042 272.349C165.343 271.964 162.613 271.837 159.89 271.971V271.971Z" fill="#FBBEBE"/>
<path d="M294 145.5L306 141.5C310.023 145.249 312.813 150.131 314 155.5C316 164.5 348 266.5 332 274.5C316 282.5 288 295.5 288 295.5L275 261.5L296 250.5L288 206.5C288 206.5 280 145.5 294 145.5Z" fill="#575A89"/>
<path d="M707 460.5H451V204.5H707V460.5ZM453 458.5H705V206.5H453V458.5Z" fill="#3F3D56"/>
<path d="M676 235.5H482V429.5H676V235.5Z" fill="#8C6733"/>
<path d="M554.347 371.687C548.542 353.679 541.223 340.92 531.312 331.534L530.68 330.934L531.188 330.225C550.151 303.751 565.8 277.85 577.698 253.244L578.579 251.423L579.491 253.229C594.688 283.305 610.16 308.482 626.794 330.2L627.311 330.875L626.729 331.493C614.682 344.29 606.874 357.425 602.86 371.652L600.935 371.109C604.974 356.796 612.748 343.583 624.691 330.742C608.509 309.514 593.421 285.016 578.617 255.927C566.889 279.874 551.657 305.011 533.317 330.685C543.162 340.25 550.462 353.113 556.251 371.074L554.347 371.687Z" fill="#3F3D56"/>
<path d="M579.599 253.68H577.599V330.808H579.599V253.68Z" fill="#3F3D56"/>
<path d="M578.598 336.432C581.704 336.432 584.222 333.914 584.222 330.808C584.222 327.702 581.704 325.184 578.598 325.184C575.492 325.184 572.974 327.702 572.974 330.808C572.974 333.914 575.492 336.432 578.598 336.432Z" fill="#3F3D56"/>
<path d="M617.091 367.665L539.313 419.392L540.421 421.057L618.199 369.331L617.091 367.665Z" fill="#CFCCE0"/>
<path d="M535.128 393.36C531.682 391.011 530.708 388.708 530.612 388.463L532.475 387.735L531.543 388.099L532.472 387.727C532.53 387.869 538.848 401.982 579.531 394.278C622.139 386.209 627.103 398.788 627.293 399.327L625.407 399.993C625.369 399.893 620.404 388.574 579.903 396.243C553.349 401.272 540.841 397.254 535.128 393.36Z" fill="#3F3D56"/>
<path d="M536.11 382.654L526.285 384.515L528.145 394.34L537.971 392.48L536.11 382.654Z" fill="#3F3D56"/>
<path d="M629.164 393.021L619.339 394.882L621.199 404.707L631.025 402.846L629.164 393.021Z" fill="#3F3D56"/>
<path d="M579.203 399.59C581.964 399.59 584.203 397.351 584.203 394.59C584.203 391.828 581.964 389.59 579.203 389.59C576.441 389.59 574.203 391.828 574.203 394.59C574.203 397.351 576.441 399.59 579.203 399.59Z" fill="#CFCCE0"/>
<path d="M539.867 425.223C542.628 425.223 544.867 422.985 544.867 420.223C544.867 417.462 542.628 415.223 539.867 415.223C537.105 415.223 534.867 417.462 534.867 420.223C534.867 422.985 537.105 425.223 539.867 425.223Z" fill="#CFCCE0"/>
<path d="M617.644 373.497C620.406 373.497 622.644 371.258 622.644 368.497C622.644 365.736 620.406 363.497 617.644 363.497C614.883 363.497 612.644 365.736 612.644 368.497C612.644 371.258 614.883 373.497 617.644 373.497Z" fill="#CFCCE0"/>
<path d="M580 332.461H578V350.461H580V332.461Z" fill="#3F3D56"/>
<path d="M914 459.461H430V461.461H914V459.461Z" fill="#3F3D56"/>
</g>
<defs>
<clipPath id="clip0">
<rect width="923.5" height="746.923" fill="white"/>
</clipPath>
</defs>
</svg>
