<svg width="850" height="719" viewBox="0 0 850 719" fill="none" xmlns="http://www.w3.org/2000/svg">
<g clip-path="url(#clip0)">
<path d="M652.718 666.412H267.825C265.438 666.409 263.151 665.46 261.464 663.773C259.776 662.085 258.827 659.798 258.825 657.412V394.59C258.827 392.204 259.776 389.916 261.464 388.229C263.151 386.542 265.438 385.593 267.825 385.59H652.718C655.104 385.593 657.392 386.542 659.079 388.229C660.766 389.916 661.715 392.204 661.718 394.59V657.412C661.715 659.798 660.766 662.085 659.079 663.773C657.392 665.46 655.104 666.409 652.718 666.412Z" fill="#C5A67B"/>
<path d="M652.718 666.412H267.825C265.438 666.409 263.151 665.46 261.464 663.773C259.776 662.085 258.827 659.798 258.825 657.412V394.59C258.827 392.204 259.776 389.916 261.464 388.229C263.151 386.542 265.438 385.593 267.825 385.59H652.718C655.104 385.593 657.392 386.542 659.079 388.229C660.766 389.916 661.715 392.204 661.718 394.59V657.412C661.715 659.798 660.766 662.085 659.079 663.773C657.392 665.46 655.104 666.409 652.718 666.412ZM267.825 387.59C265.969 387.592 264.189 388.33 262.877 389.642C261.565 390.955 260.827 392.734 260.825 394.59V657.412C260.827 659.268 261.565 661.047 262.877 662.359C264.189 663.671 265.969 664.41 267.825 664.412H652.718C654.574 664.41 656.353 663.671 657.666 662.359C658.978 661.047 659.716 659.268 659.718 657.412V394.59C659.716 392.734 658.978 390.955 657.666 389.642C656.353 388.33 654.574 387.592 652.718 387.59H267.825Z" fill="#3F3D56"/>
<path d="M504.826 664.83H415.717V517.311C415.721 513.812 417.113 510.457 419.587 507.983C422.061 505.509 425.415 504.118 428.914 504.114H491.629C495.128 504.118 498.482 505.509 500.956 507.983C503.43 510.457 504.822 513.812 504.826 517.311V664.83Z" fill="#8C6733"/>
<path d="M631.727 329.567H580.839V244.523C580.842 242.137 581.791 239.849 583.478 238.162C585.165 236.475 587.453 235.526 589.839 235.523H622.727C625.113 235.526 627.401 236.475 629.088 238.162C630.775 239.849 631.724 242.137 631.727 244.523V329.567Z" fill="#C5A67B"/>
<path d="M631.727 329.567H580.839V244.523C580.842 242.137 581.791 239.849 583.478 238.162C585.165 236.475 587.453 235.526 589.839 235.523H622.727C625.113 235.526 627.401 236.475 629.088 238.162C630.775 239.849 631.724 242.137 631.727 244.523V329.567ZM582.839 327.567H629.727V244.523C629.725 242.667 628.987 240.888 627.674 239.576C626.362 238.263 624.583 237.525 622.727 237.523H589.839C587.983 237.525 586.204 238.263 584.892 239.576C583.579 240.888 582.841 242.667 582.839 244.523V327.567Z" fill="#3F3D56"/>
<path d="M344.82 365.378C398.939 365.378 442.811 321.506 442.811 267.387C442.811 213.267 398.939 169.395 344.82 169.395C290.701 169.395 246.828 213.267 246.828 267.387C246.828 321.506 290.701 365.378 344.82 365.378Z" fill="#E6E950"/>
<path d="M607.808 220.614C598.983 220.337 591.127 212.288 591.064 203.458C591.001 194.629 598.741 186.468 607.561 186.065C627.201 185.167 643.28 164.091 638.959 144.911C634.637 125.732 611.071 113.59 592.945 121.201C579.04 127.041 564.988 108.642 568.513 93.9786C572.037 79.3147 585.373 69.4678 597.712 60.7967C610.052 52.1256 623.252 41.9448 626.23 27.1604C629.209 12.3759 613.962 -5.33411 600.527 1.51908" fill="#B0A9A9"/>
<path d="M378.08 546.965H302.81C299.808 546.962 296.929 545.768 294.806 543.645C292.683 541.522 291.489 538.643 291.485 535.641V473.586C291.489 470.584 292.683 467.706 294.806 465.583C296.929 463.46 299.808 462.266 302.81 462.262H378.08C381.083 462.266 383.961 463.46 386.084 465.583C388.207 467.706 389.401 470.584 389.405 473.586V535.641C389.401 538.643 388.207 541.521 386.084 543.645C383.961 545.768 381.083 546.962 378.08 546.965V546.965Z" fill="#8C6733"/>
<path d="M619.474 546.965H544.204C541.201 546.962 538.323 545.768 536.2 543.645C534.077 541.522 532.883 538.643 532.879 535.641V473.586C532.883 470.584 534.077 467.706 536.2 465.583C538.323 463.46 541.201 462.266 544.204 462.262H619.474C622.477 462.266 625.355 463.46 627.478 465.583C629.601 467.706 630.795 470.584 630.799 473.586V535.641C630.795 538.643 629.601 541.522 627.478 543.645C625.355 545.768 622.477 546.962 619.474 546.965V546.965Z" fill="#8C6733"/>
<path d="M230.088 390.995V350.558C230.088 347.452 230.909 344.401 232.468 341.714C234.027 339.027 236.269 336.801 238.965 335.259L463.641 206.846C466.43 205.252 469.602 204.45 472.813 204.528C476.024 204.606 479.153 205.56 481.862 207.288L682.309 335.138C684.806 336.73 686.861 338.926 688.285 341.523C689.708 344.12 690.455 347.033 690.455 349.995V390.995C690.455 395.669 688.598 400.151 685.293 403.456C681.989 406.761 677.507 408.617 672.833 408.617H247.71C243.036 408.617 238.554 406.761 235.249 403.456C231.945 400.151 230.088 395.669 230.088 390.995Z" fill="#8C6733"/>
<path opacity="0.2" d="M672.833 390.614H247.71C243.036 390.614 238.554 388.757 235.249 385.453C231.945 382.148 230.088 377.666 230.088 372.992V388.992C230.088 393.666 231.945 398.148 235.249 401.453C238.554 404.757 243.036 406.614 247.71 406.614H672.833C677.507 406.614 681.989 404.757 685.293 401.453C688.598 398.148 690.455 393.666 690.455 388.992V372.992C690.455 377.666 688.598 382.148 685.293 385.453C681.989 388.757 677.507 390.614 672.833 390.614Z" fill="black"/>
<path d="M707.35 528.99C707.35 497.98 732.488 424.396 763.498 424.396C794.507 424.396 819.645 497.98 819.645 528.99C819.645 543.881 813.73 558.162 803.2 568.692C792.67 579.222 778.389 585.137 763.498 585.137C748.607 585.137 734.325 579.222 723.795 568.692C713.266 558.162 707.35 543.881 707.35 528.99V528.99Z" fill="#B0803C"/>
<path d="M763.498 665.218C763.232 665.218 762.978 665.113 762.791 664.925C762.603 664.738 762.498 664.483 762.498 664.218V462.607C762.498 462.342 762.603 462.088 762.791 461.9C762.978 461.713 763.232 461.607 763.498 461.607C763.763 461.607 764.017 461.713 764.205 461.9C764.392 462.088 764.498 462.342 764.498 462.607V664.218C764.498 664.483 764.392 664.738 764.205 664.925C764.017 665.113 763.763 665.218 763.498 665.218V665.218Z" fill="#3F3D56"/>
<path d="M763.497 552.013C763.302 552.013 763.11 551.956 762.947 551.848C762.783 551.74 762.655 551.587 762.578 551.407C762.501 551.227 762.479 551.028 762.513 550.836C762.548 550.643 762.639 550.465 762.774 550.323L791.316 520.372C791.407 520.277 791.515 520.2 791.635 520.147C791.755 520.094 791.885 520.065 792.016 520.062C792.147 520.059 792.278 520.081 792.4 520.129C792.523 520.176 792.635 520.247 792.73 520.338C792.825 520.428 792.901 520.537 792.954 520.657C793.007 520.777 793.036 520.906 793.04 521.038C793.043 521.169 793.02 521.299 792.973 521.422C792.925 521.544 792.854 521.656 792.764 521.751L764.222 551.703C764.128 551.801 764.016 551.879 763.891 551.933C763.767 551.986 763.633 552.013 763.497 552.013V552.013Z" fill="#3F3D56"/>
<path d="M763.497 501.516C763.248 501.516 763.007 501.422 762.823 501.253L738.157 478.702C738.06 478.613 737.981 478.506 737.925 478.387C737.869 478.268 737.837 478.139 737.831 478.008C737.825 477.876 737.845 477.745 737.889 477.621C737.934 477.498 738.003 477.384 738.092 477.287C738.181 477.19 738.288 477.111 738.407 477.056C738.526 477 738.655 476.969 738.786 476.963C738.918 476.957 739.049 476.978 739.173 477.023C739.296 477.068 739.41 477.137 739.506 477.226L764.173 499.778C764.321 499.914 764.425 500.092 764.471 500.288C764.517 500.484 764.503 500.69 764.43 500.878C764.357 501.066 764.229 501.227 764.062 501.341C763.896 501.455 763.699 501.516 763.497 501.515V501.516Z" fill="#3F3D56"/>
<path d="M22.028 467.292C22.028 421.676 59.0072 313.431 104.623 313.431C150.24 313.431 187.219 421.676 187.219 467.292C187.219 489.197 178.517 510.206 163.027 525.695C147.537 541.185 126.529 549.887 104.623 549.887C82.7177 549.887 61.7092 541.185 46.2196 525.695C30.73 510.206 22.028 489.197 22.028 467.292V467.292Z" fill="#8C6733"/>
<path d="M104.623 667.218C104.358 667.218 104.104 667.113 103.916 666.925C103.729 666.738 103.623 666.484 103.623 666.218V369.64C103.623 369.375 103.729 369.121 103.916 368.933C104.104 368.746 104.358 368.64 104.623 368.64C104.889 368.64 105.143 368.746 105.331 368.933C105.518 369.121 105.623 369.375 105.623 369.64V666.218C105.623 666.484 105.518 666.738 105.331 666.925C105.143 667.113 104.889 667.218 104.623 667.218V667.218Z" fill="#3F3D56"/>
<path d="M104.623 500.689C104.428 500.689 104.236 500.631 104.073 500.523C103.909 500.416 103.781 500.262 103.704 500.082C103.627 499.902 103.604 499.704 103.639 499.511C103.674 499.318 103.764 499.14 103.9 498.999L145.886 454.939C146.069 454.747 146.321 454.635 146.586 454.629C146.851 454.622 147.108 454.722 147.3 454.905C147.492 455.088 147.604 455.339 147.61 455.604C147.616 455.87 147.517 456.126 147.334 456.318L105.347 500.378C105.254 500.477 105.142 500.555 105.017 500.608C104.893 500.661 104.759 500.689 104.623 500.689V500.689Z" fill="#3F3D56"/>
<path d="M104.623 426.405C104.373 426.405 104.133 426.312 103.949 426.143L67.6637 392.968C67.468 392.789 67.3513 392.539 67.3395 392.274C67.3276 392.009 67.4215 391.75 67.6005 391.555C67.7794 391.359 68.0288 391.242 68.2938 391.23C68.5587 391.219 68.8176 391.313 69.0133 391.491L105.298 424.667C105.447 424.803 105.551 424.981 105.597 425.177C105.643 425.373 105.629 425.579 105.556 425.767C105.483 425.955 105.354 426.116 105.188 426.23C105.022 426.344 104.825 426.405 104.623 426.405H104.623Z" fill="#3F3D56"/>
<path d="M724.275 665.12C724.37 665.193 724.47 665.259 724.566 665.33H805.876C807.469 658.875 808.032 652.413 805.652 646.801C802.261 638.804 792.226 633.813 784.248 637.247C782.358 638.083 780.711 639.385 779.463 641.033C776.345 635.452 770.753 631.244 764.297 631.249C756.21 631.254 749.485 637.868 747.291 645.508C743.757 639.543 736.777 635.375 729.955 637.168C718.544 640.167 714.94 657.905 724.275 665.12Z" fill="#569738"/>
<path d="M25.7409 666.905C25.9318 667.053 26.1334 667.186 26.3268 667.33H190.469C193.686 654.299 194.821 641.254 190.017 629.925C183.172 613.782 162.914 603.705 146.809 610.638C142.993 612.325 139.669 614.955 137.15 618.28C130.856 607.014 119.566 598.52 106.534 598.529C90.2072 598.54 76.6325 611.892 72.2023 627.315C65.069 615.274 50.9786 606.859 37.2062 610.479C14.1715 616.533 6.89563 652.341 25.7409 666.905Z" fill="#569738"/>
<path d="M849.963 664.417L0 666.025L0.00378422 668.025L849.967 666.417L849.963 664.417Z" fill="#3F3D56"/>
<path d="M286.814 623.718C287.017 622.928 287.044 622.102 286.894 621.3C286.743 620.498 286.418 619.739 285.943 619.076C285.467 618.413 284.851 617.862 284.14 617.463C283.428 617.063 282.638 616.825 281.824 616.764L250.067 577.06L242.209 584.383L275.757 622.31C275.745 623.684 276.238 625.015 277.141 626.049C278.045 627.084 279.297 627.752 280.66 627.925C282.023 628.099 283.402 627.767 284.537 626.991C285.671 626.216 286.481 625.051 286.814 623.718V623.718Z" fill="#FFB8B8"/>
<path d="M256.159 583.367L246.123 591.053C245.837 591.271 245.508 591.426 245.157 591.506C244.807 591.586 244.443 591.589 244.091 591.516C243.739 591.442 243.406 591.294 243.117 591.081C242.827 590.867 242.587 590.594 242.412 590.28L236.299 579.259C235.189 577.792 234.705 575.944 234.955 574.121C235.205 572.298 236.168 570.648 237.632 569.534C239.096 568.419 240.942 567.931 242.766 568.175C244.59 568.42 246.242 569.378 247.361 570.839L256.38 579.583C256.638 579.833 256.839 580.137 256.97 580.472C257.1 580.807 257.157 581.166 257.136 581.525C257.115 581.884 257.017 582.235 256.848 582.552C256.68 582.87 256.445 583.148 256.159 583.367H256.159Z" fill="#3F3D56"/>
<path d="M239.304 559.397C246.353 559.397 252.067 553.684 252.067 546.635C252.067 539.587 246.353 533.873 239.304 533.873C232.256 533.873 226.542 539.587 226.542 546.635C226.542 553.684 232.256 559.397 239.304 559.397Z" fill="#FFB8B8"/>
<path d="M266.547 712.182H272.918L272.311 700.259H262.909L266.547 712.182Z" fill="#FFB8B8"/>
<path d="M264.922 710.103L277.468 710.102H277.468C278.518 710.102 279.558 710.309 280.528 710.711C281.498 711.112 282.379 711.701 283.122 712.444C283.864 713.186 284.453 714.067 284.855 715.037C285.257 716.007 285.464 717.047 285.464 718.097V718.357L264.923 718.358L264.922 710.103Z" fill="#2F2E41"/>
<path d="M198.626 703.163L204.046 706.511L209.796 696.048L203.238 691.945L198.626 703.163Z" fill="#FFB8B8"/>
<path d="M198.337 700.539L209.01 707.132L209.011 707.133C209.904 707.684 210.68 708.407 211.294 709.258C211.908 710.11 212.348 711.074 212.59 712.096C212.831 713.118 212.869 714.177 212.701 715.213C212.533 716.25 212.162 717.243 211.611 718.136L211.474 718.357L193.998 707.562L198.337 700.539Z" fill="#2F2E41"/>
<path d="M266.087 708.686C265.613 708.686 265.151 708.542 264.761 708.272C264.372 708.003 264.073 707.622 263.905 707.179L240.862 652.085C240.813 651.951 240.727 651.832 240.614 651.743C240.502 651.654 240.367 651.598 240.225 651.581C240.082 651.563 239.938 651.586 239.807 651.645C239.677 651.705 239.565 651.799 239.485 651.918L207.828 701.786C207.518 702.251 207.052 702.589 206.515 702.738C205.977 702.888 205.403 702.84 204.898 702.602L200.567 700.58C200.012 700.319 199.581 699.85 199.367 699.276C199.153 698.701 199.173 698.065 199.422 697.504L225.357 639.692C224.791 638.314 219.267 624.168 227.754 617.179L227.814 617.142L250.827 606.876L251.408 624.53L274.346 704.118C274.432 704.417 274.458 704.731 274.421 705.041C274.385 705.35 274.287 705.649 274.133 705.92C273.979 706.191 273.772 706.429 273.525 706.619C273.278 706.809 272.996 706.948 272.694 707.027L266.686 708.608C266.49 708.66 266.289 708.686 266.087 708.686V708.686Z" fill="#2F2E41"/>
<path d="M251.176 581.053C250.299 577.536 249.057 573.99 247.392 572.354C246.78 571.757 246.205 571.124 245.67 570.457C244.55 569.047 243.142 567.892 241.539 567.072C242.125 566.745 242.469 566.356 242.469 565.937C242.469 564.789 239.91 563.858 236.753 563.858C233.596 563.858 231.037 564.789 231.037 565.937C231.045 566.07 231.079 566.201 231.137 566.321C231.196 566.441 231.277 566.548 231.377 566.637C229.316 567.477 227.524 568.867 226.198 570.655C224.872 572.443 224.063 574.561 223.857 576.778C223.119 584.684 222.903 594.79 225.491 601.183C227.661 606.469 227.833 612.365 225.976 617.769C225.85 618.145 225.835 618.55 225.932 618.935C226.029 619.319 226.234 619.668 226.523 619.94C226.812 620.212 227.173 620.395 227.563 620.468C227.954 620.541 228.356 620.5 228.724 620.351L251.56 611.149C251.944 610.994 252.274 610.728 252.506 610.384C252.738 610.041 252.861 609.636 252.861 609.221V595.245C252.88 590.463 252.314 585.697 251.176 581.053Z" fill="#3F3D56"/>
<path d="M207.483 638.616C208.278 638.432 209.023 638.075 209.665 637.572C210.307 637.068 210.831 636.43 211.2 635.702C211.569 634.974 211.774 634.174 211.8 633.358C211.826 632.543 211.673 631.731 211.352 630.981L229.219 583.864L220.158 581.524L203.632 628.156C202.408 628.78 201.454 629.831 200.953 631.11C200.452 632.389 200.437 633.808 200.912 635.097C201.386 636.386 202.318 637.457 203.529 638.105C204.74 638.754 206.147 638.936 207.483 638.616L207.483 638.616Z" fill="#FFB8B8"/>
<path d="M229.144 592.804L217.695 587.445C217.369 587.292 217.08 587.071 216.848 586.797C216.615 586.523 216.444 586.202 216.347 585.855C216.249 585.509 216.228 585.146 216.283 584.791C216.339 584.435 216.471 584.096 216.669 583.796L223.627 573.288C224.418 571.628 225.835 570.35 227.567 569.732C229.298 569.114 231.204 569.207 232.867 569.992C234.53 570.776 235.815 572.188 236.44 573.917C237.064 575.646 236.979 577.552 236.201 579.219L232.603 591.255C232.5 591.599 232.324 591.917 232.087 592.188C231.849 592.458 231.557 592.674 231.228 592.821C230.9 592.968 230.544 593.043 230.184 593.04C229.825 593.037 229.47 592.956 229.144 592.804V592.804Z" fill="#3F3D56"/>
<path d="M251.027 543.494C251.603 543.562 252.186 543.456 252.701 543.191C253.643 542.575 253.55 541.174 253.231 540.095C252.438 537.509 251.005 535.164 249.066 533.277C247.127 531.39 244.744 530.022 242.136 529.299C240.319 528.816 238.02 528.834 236.981 530.401C234.369 528.661 231.22 527.915 228.105 528.297C224.99 528.68 222.115 530.166 220.001 532.486C217.936 534.91 216.559 537.843 216.015 540.98C214.924 546.322 210.254 557.344 212.841 562.144C214.563 565.338 222.486 562.849 225.837 564.241C227.506 564.967 229.329 565.27 231.143 565.124C232.957 564.977 234.707 564.386 236.239 563.401C237.737 562.367 238.863 560.879 239.451 559.156C240.039 557.433 240.057 555.566 239.503 553.832C238.916 552.557 238.24 551.326 237.479 550.147C236.714 548.954 236.403 547.527 236.6 546.124C237.069 543.99 247.142 543.414 251.027 543.494Z" fill="#2F2E41"/>
</g>
<defs>
<clipPath id="clip0">
<rect width="849.967" height="718.357" fill="white"/>
</clipPath>
</defs>
</svg>
