<svg width="778" height="589" viewBox="0 0 778 589" fill="none" xmlns="http://www.w3.org/2000/svg">
<path d="M730.435 543.792C743.794 528.593 806.7 453.782 761.989 441.449C728.408 432.186 724.667 483.148 725.794 517.348C720.417 494.307 709.981 467.39 691.646 479.266C665.222 496.382 714.735 534.258 727.668 543.556C727.88 545.447 728.021 546.498 728.021 546.498C728.021 546.498 728.551 545.919 729.497 544.855C730.235 545.372 730.646 545.65 730.646 545.65C730.646 545.65 730.578 544.98 730.435 543.792Z" fill="#5A3931"/>
<path d="M53.1842 585.398C68.4842 567.99 140.533 482.307 89.3242 468.181C50.8627 457.572 46.5777 515.941 47.8686 555.111C41.7099 528.721 29.7573 497.893 8.75775 511.495C-21.5067 531.098 35.2018 574.479 50.015 585.129C50.2582 587.294 50.4187 588.498 50.4187 588.498C50.4187 588.498 51.0263 587.835 52.1094 586.616C52.9556 587.208 53.4262 587.527 53.4262 587.527C53.4262 587.527 53.3474 586.759 53.1842 585.398Z" fill="#5A3931"/>
<path d="M221.806 0C220.48 0.00155881 219.209 0.528842 218.272 1.46619C217.334 2.40353 216.807 3.6744 216.806 5V540C216.807 541.326 217.334 542.596 218.272 543.534C219.209 544.471 220.48 544.998 221.806 545H652.805C654.131 544.998 655.402 544.471 656.339 543.534C657.276 542.596 657.803 541.326 657.805 540V5C657.803 3.6744 657.276 2.40353 656.339 1.46619C655.402 0.528842 654.131 0.00155617 652.805 0H221.806Z" fill="#5A3931"/>
<path d="M586.83 95H391.781C389.033 95 386.805 91.6421 386.805 87.5C386.805 83.3579 389.033 80 391.781 80H586.83C589.578 80 591.805 83.3579 591.805 87.5C591.805 91.6421 589.578 95 586.83 95Z" fill="#F9EAE5"/>
<path d="M586.83 202H391.781C389.033 202 386.805 198.642 386.805 194.5C386.805 190.358 389.033 187 391.781 187H586.83C589.578 187 591.805 190.358 591.805 194.5C591.805 198.642 589.578 202 586.83 202Z" fill="#F9EAE5"/>
<path d="M586.83 304H391.781C389.033 304 386.805 300.642 386.805 296.5C386.805 292.358 389.033 289 391.781 289H586.83C589.578 289 591.805 292.358 591.805 296.5C591.805 300.642 589.578 304 586.83 304Z" fill="#F9EAE5"/>
<path d="M587.024 406H391.976C389.228 406 387 402.642 387 398.5C387 394.358 389.228 391 391.976 391H587.024C589.773 391 592 394.358 592 398.5C592 402.642 589.773 406 587.024 406Z" fill="#F9EAE5"/>
<path d="M584.305 247.125H290.305C288.316 247.125 286.409 246.335 285.002 244.928C283.596 243.522 282.805 241.614 282.805 239.625C282.805 237.636 283.596 235.728 285.002 234.322C286.409 232.915 288.316 232.125 290.305 232.125H584.305C586.295 232.125 588.202 232.915 589.609 234.322C591.015 235.728 591.805 237.636 591.805 239.625C591.805 241.614 591.015 243.522 589.609 244.928C588.202 246.335 586.295 247.125 584.305 247.125Z" fill="#F9EAE5"/>
<path d="M584.5 140H290.5C288.511 140 286.603 139.21 285.197 137.803C283.79 136.397 283 134.489 283 132.5C283 130.511 283.79 128.603 285.197 127.197C286.603 125.79 288.511 125 290.5 125H584.5C586.489 125 588.397 125.79 589.803 127.197C591.21 128.603 592 130.511 592 132.5C592 134.489 591.21 136.397 589.803 137.803C588.397 139.21 586.489 140 584.5 140Z" fill="#F9EAE5"/>
<path d="M584.305 349.125H290.305C288.316 349.125 286.409 348.335 285.002 346.928C283.596 345.522 282.805 343.614 282.805 341.625C282.805 339.636 283.596 337.728 285.002 336.322C286.409 334.915 288.316 334.125 290.305 334.125H584.305C586.295 334.125 588.202 334.915 589.609 336.322C591.015 337.728 591.805 339.636 591.805 341.625C591.805 343.614 591.015 345.522 589.609 346.928C588.202 348.335 586.295 349.125 584.305 349.125Z" fill="#F9EAE5"/>
<path d="M584.5 451.125H290.5C288.511 451.125 286.603 450.335 285.197 448.928C283.79 447.522 283 445.614 283 443.625C283 441.636 283.79 439.728 285.197 438.322C286.603 436.915 288.511 436.125 290.5 436.125H584.5C586.489 436.125 588.397 436.915 589.803 438.322C591.21 439.728 592 441.636 592 443.625C592 445.614 591.21 447.522 589.803 448.928C588.397 450.335 586.489 451.125 584.5 451.125Z" fill="#F9EAE5"/>
<path d="M343.5 106C353.717 106 362 97.7173 362 87.5C362 77.2827 353.717 69 343.5 69C333.283 69 325 77.2827 325 87.5C325 97.7173 333.283 106 343.5 106Z" fill="#F9EAE5"/>
<path d="M343.5 213C353.717 213 362 204.717 362 194.5C362 184.283 353.717 176 343.5 176C333.283 176 325 184.283 325 194.5C325 204.717 333.283 213 343.5 213Z" fill="#F9EAE5"/>
<path d="M343.5 315C353.717 315 362 306.717 362 296.5C362 286.283 353.717 278 343.5 278C333.283 278 325 286.283 325 296.5C325 306.717 333.283 315 343.5 315Z" fill="#F9EAE5"/>
<path d="M343.695 417C353.912 417 362.195 408.717 362.195 398.5C362.195 388.283 353.912 380 343.695 380C333.477 380 325.195 388.283 325.195 398.5C325.195 408.717 333.477 417 343.695 417Z" fill="#F9EAE5"/>
<path d="M292.41 246.91L233.507 278.226L232.761 252.129C251.987 248.92 270.278 243.332 287.191 234.235L293.351 219.015C294.022 217.356 295.113 215.901 296.517 214.791C297.921 213.682 299.589 212.956 301.357 212.686C303.126 212.416 304.935 212.611 306.605 213.251C308.276 213.891 309.752 214.954 310.888 216.337V216.337C312.549 218.359 313.38 220.938 313.211 223.551C313.042 226.163 311.887 228.613 309.979 230.406L292.41 246.91Z" fill="#FFB8B8"/>
<path d="M148.486 427.715C148.056 426.139 147.965 424.49 148.218 422.876C148.472 421.262 149.064 419.72 149.955 418.352L162.895 398.494C165.955 393.797 170.651 390.404 176.072 388.974C181.492 387.544 187.251 388.179 192.23 390.755V390.755C186.792 400.011 187.55 408.131 194.108 415.188C183.927 420.158 174.518 426.573 166.172 434.233C164.648 435.272 162.898 435.931 161.068 436.157C159.238 436.383 157.38 436.168 155.65 435.53C153.919 434.892 152.367 433.85 151.121 432.491C149.874 431.131 148.971 429.494 148.486 427.715V427.715Z" fill="#2F2E41"/>
<path d="M295.093 401.75C293.135 405.014 290.371 407.719 287.066 409.607C283.762 411.494 280.028 412.501 276.222 412.529L190.262 413.181L186.534 391.558L224.56 380.374L192.499 355.769L227.542 314.76L291.192 374.085C294.912 377.552 297.329 382.191 298.039 387.227C298.749 392.263 297.709 397.39 295.093 401.75V401.75Z" fill="#2F2E41"/>
<path d="M176.841 549.627H156.709C138.634 425.729 120.235 301.485 174.604 255.112L238.726 265.55L230.524 319.98L194.735 360.988L176.841 549.627Z" fill="#2F2E41"/>
<path d="M192.537 587.694C190.961 588.123 189.312 588.215 187.698 587.962C186.084 587.708 184.543 587.116 183.174 586.225L163.315 573.287C158.618 570.227 155.225 565.531 153.795 560.11C152.365 554.69 152.999 548.931 155.574 543.952V543.952C164.831 549.39 172.951 548.631 180.008 542.073C184.978 552.253 191.393 561.662 199.054 570.008C200.093 571.531 200.753 573.281 200.979 575.111C201.204 576.941 200.989 578.799 200.352 580.529C199.714 582.26 198.672 583.813 197.313 585.059C195.954 586.305 194.316 587.208 192.537 587.694Z" fill="#2F2E41"/>
<path d="M264.713 169H169.012C151.338 143.997 149.264 120.087 169.012 97.7061C169.012 87.8098 181.794 79.7872 197.562 79.7872H197.562C209.914 79.7872 220.865 84.7722 224.701 92.141L264.713 169Z" fill="#2F2E41"/>
<path d="M224.56 172.349L187.279 163.402C193.471 150.728 193.981 136.626 191.007 121.648L216.358 120.902C217.152 139.528 219.555 156.928 224.56 172.349Z" fill="#FFB8B8"/>
<path d="M234.806 288C207.667 306.493 188.491 288.633 173.858 261.077C175.892 244.215 172.599 224.036 166.502 202.11C163.79 192.439 164.802 182.103 169.339 173.143C173.876 164.182 181.607 157.248 191.007 153.709V153.709L223.068 167.13C250.292 189.32 255.65 213.357 245.437 238.708L234.806 288Z" fill="#927132"/>
<path d="M156.709 190.989L126.885 206.647L179.823 237.963L187.189 256.132C187.681 257.345 187.92 258.645 187.893 259.953C187.866 261.262 187.572 262.551 187.031 263.742C186.489 264.933 185.71 266.002 184.742 266.882C183.774 267.762 182.637 268.437 181.4 268.863V268.863C179.994 269.348 178.494 269.501 177.019 269.31C175.544 269.118 174.133 268.588 172.897 267.76C171.661 266.933 170.633 265.83 169.894 264.539C169.156 263.248 168.726 261.804 168.638 260.319L167.893 247.656L100.61 225.452C98.3426 224.704 96.2756 223.45 94.5651 221.784C92.8546 220.119 91.5455 218.087 90.7369 215.84V215.84C89.5583 212.566 89.4983 208.994 90.5663 205.682C91.6344 202.371 93.7701 199.506 96.6395 197.538L150.744 160.419L156.709 190.989Z" fill="#FFB8B8"/>
<path d="M186.534 193.972C174.095 188.521 162.784 194.442 148.508 199.191L146.271 159.674C160.447 152.118 173.963 150.081 186.534 155.946V193.972Z" fill="#927132"/>
<path d="M262.958 169H241.85C228.713 144.764 229.309 101.944 201.073 111.488C182.932 100.721 193.341 142.972 188.83 169H170.473C165.485 143.57 165.416 118.087 171.284 97.3648C171.339 96.0073 171.681 94.6768 172.286 93.4603C172.891 92.2439 173.746 91.1689 174.795 90.3055C175.706 89.47 176.692 88.7209 177.741 88.0678C184.227 83.9811 188.584 81.6533 198.061 81.6533C203.364 81.6416 208.644 82.3676 213.748 83.8105C214.412 84.0049 215.068 84.2135 215.702 84.4315C216.574 84.7302 217.417 85.0573 218.222 85.4082C222.367 87.1907 225.626 89.6039 227.169 92.6239C245.034 113.93 254.153 140.811 262.958 169Z" fill="#2F2E41"/>
<path d="M201.413 140.476C214.558 140.476 225.215 129.82 225.215 116.674C225.215 103.529 214.558 92.8722 201.413 92.8722C188.267 92.8722 177.611 103.529 177.611 116.674C177.611 129.82 188.267 140.476 201.413 140.476Z" fill="#FFB8B8"/>
<path d="M225.555 107.494C218.394 97.7334 199.72 109.376 177.271 117.694V94.5724C195.738 86.4427 206.507 84.0977 218.754 92.5322L225.555 107.494Z" fill="#2F2E41"/>
</svg>
