<svg width="1039" height="567" viewBox="0 0 1039 567" fill="none" xmlns="http://www.w3.org/2000/svg">
<g clip-path="url(#clip0)">
<path opacity="0.1" d="M302.52 276.7C278.03 288.02 255.45 303.57 229.92 312.28C198.85 322.88 165.3 322.77 132.47 322.53L0 321.6C26.83 369.79 74.23 406.07 127.75 419.38C148.75 424.61 171.18 426.66 189.7 437.89C212.78 451.89 226.46 478.21 249.92 491.54C275.78 506.22 307.92 502.26 336.74 509.54C374.31 518.97 405.74 547.33 444.06 552.91C481.12 558.3 517.25 541.56 553.17 530.99C681.47 493.23 820.08 533.56 952.51 514.89C957.6 514.17 963.02 513.2 966.7 509.62C971.43 505.03 971.82 497.62 970.88 491.05C966.16 458.31 936.71 434.25 905.83 422.38C840.04 397.1 766.13 412.98 696.24 403.88C648.24 397.62 602.58 379.6 557.54 361.73C510.38 343.02 462.48 324.66 417.79 300.45C372.36 275.8 357.63 251.26 302.52 276.7Z" fill="#F9EAE5"/>
<path d="M717.22 450.5C717.22 450.5 719.22 480.5 715.22 485.5C715.22 485.5 803.22 501.5 814.22 496.5C825.22 491.5 820.22 483.5 814.22 480.5C808.22 477.5 778.22 466.5 774.22 445.5C774.22 445.5 787.22 439.5 745.22 447.5C703.22 455.5 717.22 450.5 717.22 450.5Z" fill="#2F2E41"/>
<path d="M374.03 32.74L373.65 32.92C355.497 41.4822 339.707 54.3441 327.65 70.39C320.83 79.39 312.45 87.97 304.48 89.39C286.78 92.51 156.63 227.87 187.87 353.85C219.11 479.83 401.36 485.03 401.36 485.03C401.36 485.03 440.12 491.6 462.36 504.74C467.553 507.811 473.358 509.702 479.363 510.279C485.368 510.856 491.427 510.105 497.11 508.08C523.59 498.66 567.11 485 586.73 489.2C615.88 495.45 865.73 391.33 865.73 391.33C865.73 391.33 761.61 291.33 608.56 293.46C608.56 293.46 367.01 124.79 375.34 55.03L374.03 32.74Z" fill="#927132"/>
<path opacity="0.1" d="M374.03 32.74L373.65 32.92C355.497 41.4822 339.707 54.3441 327.65 70.39C320.83 79.39 312.45 87.97 304.48 89.39C286.78 92.51 156.63 227.87 187.87 353.85C219.11 479.83 401.36 485.03 401.36 485.03C401.36 485.03 440.12 491.6 462.36 504.74C467.553 507.811 473.358 509.702 479.363 510.279C485.368 510.856 491.427 510.105 497.11 508.08C523.59 498.66 567.11 485 586.73 489.2C615.88 495.45 865.73 391.33 865.73 391.33C865.73 391.33 761.61 291.33 608.56 293.46C608.56 293.46 367.01 124.79 375.34 55.03L374.03 32.74Z" fill="black"/>
<path d="M374.22 32.5L349.22 56.5C349.22 56.5 330.22 93.5 313.22 96.5C296.22 99.5 171.22 229.5 201.22 350.5C231.22 471.5 406.22 476.5 406.22 476.5C406.22 476.5 442.64 482.67 464.07 495.02C469.266 498.062 475.06 499.941 481.053 500.526C487.045 501.111 493.094 500.389 498.78 498.41C524.27 489.41 565.56 476.5 584.21 480.5C612.21 486.5 852.21 386.5 852.21 386.5C852.21 386.5 752.21 290.5 605.21 292.5C605.21 292.5 373.21 130.5 381.21 63.5L374.22 32.5Z" fill="#927132"/>
<path opacity="0.1" d="M541.503 416.311C572.3 385.515 551.817 315.1 495.754 259.037C439.69 202.973 369.276 182.49 338.479 213.287C307.682 244.084 328.165 314.498 384.229 370.562C440.292 426.625 510.707 447.108 541.503 416.311Z" fill="black"/>
<path d="M524.22 117.5C516.57 141.85 506.98 171.5 501.86 187.32L498.22 198.5L465.22 164.5C465.22 164.5 466.67 161.13 468.84 156.41C473.67 145.95 482.08 128.88 486.22 127.5C486.22 127.5 440.22 124.5 426.22 135.5C412.22 146.5 416.22 105.5 416.22 105.5C416.22 105.5 443.22 103.5 453.22 97.5C463.22 91.5 517.22 85.5 517.22 85.5C517.22 85.5 535.22 82.5 524.22 117.5Z" fill="#FFB8B8"/>
<path opacity="0.1" d="M343.22 419.5C343.22 419.5 428.22 380.5 458.22 386.5Z" fill="black"/>
<path opacity="0.1" d="M256.22 327.5C256.22 327.5 359.22 323.5 415.22 359.5Z" fill="black"/>
<path opacity="0.1" d="M307.22 368.5C307.22 368.5 388.22 348.5 431.22 355.5Z" fill="black"/>
<path d="M824.22 411.5L817.22 462.5L799.22 460.5C799.22 460.5 798.13 459.5 796.28 457.82C791.43 453.55 781.34 445.18 771.68 440.62C768.412 438.952 764.867 437.895 761.22 437.5L781.22 407.5C786.087 409.323 791.076 410.8 796.15 411.92C801.422 413.155 806.816 413.793 812.23 413.82C816.345 413.896 820.43 413.105 824.22 411.5Z" fill="#FFB8B8"/>
<path d="M774.22 447.5C765.22 455.5 724.22 438.5 717.22 464.5L710.78 439.84L690.95 363.95L688.22 353.5L671.7 352.79L482.12 344.7L471.36 344.26L465.7 344.02L473.21 340.3L523.21 315.52C523.21 315.52 541.21 314.26 566.06 310.85C603.72 305.69 657.06 295.6 687.18 277.53C737.18 247.53 756.18 348.53 756.18 348.53C756.18 348.53 763.78 374.16 769.58 399.41C772.34 411.41 774.69 423.41 775.58 432.47C776.43 440.16 776.17 445.77 774.22 447.5Z" fill="#2F2E41"/>
<path opacity="0.1" d="M796.15 411.92L778.65 432.44L771.65 440.62C768.382 438.952 764.837 437.895 761.19 437.5L781.19 407.5C786.066 409.324 791.065 410.801 796.15 411.92V411.92Z" fill="black"/>
<path d="M795.22 409.5L775.65 432.44L766.22 443.5V446.5C754.68 449.16 718.71 441.58 710.78 439.84C709.78 439.63 709.22 439.5 709.22 439.5C686.22 440.5 601.22 390.5 601.22 390.5C601.22 390.5 508.22 406.5 463.22 402.5C438.09 400.26 431.05 391.17 429.73 383.57C429.149 379.814 429.667 375.969 431.22 372.5L471.36 344.26L476.69 340.51L485.2 334.51C485.2 334.51 499.99 331.16 518.78 327.01C548.13 320.54 587.25 312.13 595.17 311.52C608.17 310.52 641.17 321.52 660.17 343.52C663.441 346.974 667.137 349.998 671.17 352.52L671.69 352.86C677.03 356.4 683.61 360.17 690.94 364.02C715.15 376.77 747.42 390.46 769.61 399.45C784.77 405.54 795.22 409.5 795.22 409.5Z" fill="#2F2E41"/>
<path opacity="0.1" d="M824.22 411.5L817.22 462.5L799.22 460.5C799.22 460.5 798.13 459.5 796.28 457.82C800.28 457.91 806.84 456.76 808.22 448.5C808.22 448.5 801.29 424.25 812.22 413.82C816.339 413.897 820.427 413.107 824.22 411.5V411.5Z" fill="black"/>
<path d="M805.22 443.5C805.22 443.5 795.22 408.5 818.22 404.5L856.22 419.5L900.22 422.5C900.22 422.5 911.71 441.26 893.29 462.26C888.243 467.954 882.099 472.572 875.226 475.837C868.353 479.101 860.892 480.946 853.29 481.26L805.21 483.51L790.21 452.51C790.21 452.51 803.22 455.5 805.22 443.5Z" fill="#2F2E41"/>
<path opacity="0.1" d="M566.07 310.83C561.07 312.3 540.19 318.53 518.83 326.99C508.276 331.054 497.994 335.793 488.05 341.18C485.98 342.34 484.05 343.51 482.15 344.69C476.55 348.24 472.04 351.88 469.25 355.49C456.91 371.49 438.78 380.05 429.76 383.56C429.179 379.804 429.697 375.959 431.25 372.49L471.36 344.26L465.7 344.02L473.21 340.3L468.7 340.02L523.2 315.52C523.2 315.52 541.23 314.26 566.07 310.83Z" fill="black"/>
<path opacity="0.1" d="M501.86 187.32L498.22 198.5L465.22 164.5C465.22 164.5 466.67 161.13 468.84 156.41C473.01 165.26 492.93 180.69 501.86 187.32Z" fill="black"/>
<path d="M143.81 329.26C143.81 329.26 152.19 340.26 139.94 356.76C127.69 373.26 117.59 387.27 121.68 397.59C121.68 397.59 140.16 366.86 155.2 366.43C170.24 366 160.36 347.77 143.81 329.26Z" fill="#927132"/>
<path opacity="0.1" d="M143.81 329.26C144.54 330.32 145.116 331.478 145.52 332.7C160.2 349.94 168.01 366.03 153.91 366.44C140.77 366.82 125.01 390.31 121.23 396.25C121.355 396.708 121.505 397.159 121.68 397.6C121.68 397.6 140.16 366.87 155.2 366.44C170.24 366.01 160.36 347.77 143.81 329.26Z" fill="black"/>
<path d="M159.36 343.26C159.36 347.12 158.93 350.26 158.36 350.26C157.79 350.26 157.36 347.13 157.36 343.26C157.36 339.39 157.9 341.26 158.43 341.26C158.96 341.26 159.36 339.4 159.36 343.26Z" fill="#FFD037"/>
<path d="M164.73 347.87C161.34 349.72 158.39 350.87 158.14 350.36C157.89 349.85 160.42 348.01 163.81 346.17C167.2 344.33 165.86 345.67 166.12 346.17C166.38 346.67 168.12 346.02 164.73 347.87Z" fill="#FFD037"/>
<path d="M99.54 329.26C99.54 329.26 91.16 340.26 103.41 356.76C115.66 373.26 125.76 387.27 121.67 397.59C121.67 397.59 103.19 366.86 88.15 366.43C73.11 366 83 347.77 99.54 329.26Z" fill="#927132"/>
<path opacity="0.1" d="M99.54 329.26C98.8098 330.32 98.234 331.478 97.83 332.7C83.15 349.94 75.34 366.03 89.44 366.44C102.58 366.82 118.34 390.31 122.12 396.25C121.995 396.708 121.845 397.159 121.67 397.6C121.67 397.6 103.19 366.87 88.15 366.44C73.11 366.01 83 347.77 99.54 329.26Z" fill="black"/>
<path d="M83.96 343.26C83.96 347.12 84.39 350.26 84.96 350.26C85.53 350.26 85.96 347.13 85.96 343.26C85.96 339.39 85.42 341.26 84.89 341.26C84.36 341.26 83.96 339.4 83.96 343.26Z" fill="#FFD037"/>
<path d="M78.62 347.87C82.01 349.72 84.96 350.87 85.21 350.36C85.46 349.85 82.93 348.01 79.54 346.17C76.15 344.33 77.49 345.67 77.23 346.17C76.97 346.67 75.23 346.02 78.62 347.87Z" fill="#FFD037"/>
<path d="M86.63 396.19C86.63 396.19 110.06 395.47 117.12 390.44C124.18 385.41 153.12 379.44 154.91 387.44C156.7 395.44 190.12 427.55 163.67 427.76C137.22 427.97 102.21 423.64 95.16 419.35C88.11 415.06 86.63 396.19 86.63 396.19Z" fill="#A8A8A8"/>
<path opacity="0.2" d="M164.15 424.99C137.7 425.2 102.69 420.87 95.64 416.58C90.27 413.31 88.13 401.58 87.42 396.17H86.64C86.64 396.17 88.12 415.07 95.17 419.36C102.22 423.65 137.23 427.99 163.68 427.77C171.32 427.71 173.95 424.99 173.81 420.97C172.74 423.42 169.83 424.94 164.15 424.99Z" fill="black"/>
<path d="M273.92 528.45C275.753 526.956 277.088 524.94 277.75 522.67C278.25 520.37 277.27 517.62 275.07 516.78C272.61 515.84 269.98 517.54 267.99 519.27C266 521 263.71 522.96 261.1 522.59C262.442 521.374 263.445 519.831 264.013 518.112C264.581 516.393 264.693 514.556 264.34 512.78C264.227 512.044 263.916 511.353 263.44 510.78C262.07 509.32 259.6 509.95 257.96 511.1C252.76 514.76 251.31 521.82 251.28 528.18C250.76 525.89 251.2 523.5 251.18 521.18C251.16 518.86 250.52 516.18 248.54 514.96C247.312 514.3 245.933 513.973 244.54 514.01C242.2 513.92 239.6 514.16 238 515.87C236 517.99 236.53 521.56 238.26 523.87C239.99 526.18 242.61 527.67 245.03 529.29C246.97 530.443 248.624 532.019 249.87 533.9C250.017 534.161 250.137 534.436 250.23 534.72H264.86C268.149 533.049 271.197 530.94 273.92 528.45Z" fill="#927132"/>
<path d="M338.92 560.26C340.753 558.766 342.088 556.75 342.75 554.48C343.25 552.18 342.27 549.43 340.07 548.59C337.61 547.65 334.98 549.35 332.99 551.08C331 552.81 328.71 554.77 326.1 554.4C327.442 553.184 328.445 551.641 329.013 549.922C329.581 548.203 329.693 546.366 329.34 544.59C329.227 543.854 328.916 543.163 328.44 542.59C327.07 541.13 324.6 541.76 322.96 542.91C317.76 546.57 316.31 553.63 316.28 559.99C315.76 557.7 316.2 555.31 316.18 552.99C316.16 550.67 315.52 547.99 313.54 546.77C312.312 546.11 310.933 545.783 309.54 545.82C307.2 545.73 304.6 545.97 303 547.68C301 549.8 301.53 553.37 303.26 555.68C304.99 557.99 307.61 559.48 310.03 561.1C311.97 562.253 313.624 563.829 314.87 565.71C315.017 565.971 315.137 566.246 315.23 566.53H329.86C333.149 564.859 336.197 562.75 338.92 560.26Z" fill="#927132"/>
<path d="M418.72 409C418.72 409 515.72 369 594.72 407L575.72 447L484.72 449L418.72 409Z" fill="#927132"/>
<g opacity="0.05">
<path opacity="0.05" d="M447.94 175.6L451.22 174.51L466.36 157.08C466.063 156.254 466.028 155.357 466.26 154.51L447.94 175.6Z" fill="black"/>
<path opacity="0.05" d="M426.89 207.85C434.82 204.35 440.89 196.75 440.62 185.85C440.62 185.26 440.62 184.7 440.52 184.17L440.2 184.53L428.2 188.53C429.142 190.851 429.621 193.335 429.61 195.84C429.768 200.012 428.83 204.153 426.89 207.85V207.85Z" fill="black"/>
<path opacity="0.05" d="M543.54 310.68C518.48 319.4 484.54 333.13 474.22 346.5C473.97 346.83 473.71 347.14 473.45 347.5C500.91 328.67 561.22 311.5 561.22 311.5C555.316 311.562 549.413 311.288 543.54 310.68Z" fill="black"/>
<path opacity="0.05" d="M429.22 376.5C425.22 367.5 417.75 358.05 409.8 349.7C390.304 329.379 377.934 303.277 374.55 275.32L374.22 272.5C358.22 256.5 321.72 270 321.72 270C319.82 238.92 330.99 218.51 339.41 207.73L337.22 208.5C337.22 208.5 307.72 231 310.72 280C310.72 280 347.22 266.5 363.22 282.5L363.55 285.32C366.934 313.277 379.304 339.379 398.8 359.7C406.8 368.05 414.25 377.47 418.22 386.5C418.22 386.5 442.59 379.5 459.66 360.74C450.46 367.648 440.172 372.975 429.22 376.5V376.5Z" fill="black"/>
</g>
<path opacity="0.1" d="M357.69 276.57C351.683 280.065 345.312 282.891 338.69 285C329.24 287.91 318.41 284.85 313.19 283V275.53L357.19 270.53L357.69 276.57Z" fill="black"/>
<path d="M312.72 269L310.09 279.71C310.09 279.71 325.72 287 338.72 283C351.72 279 361.72 272 363.72 271C365.72 270 355.72 259 355.72 259L312.72 269Z" fill="#CEDAD5"/>
<path opacity="0.1" d="M600.72 391C607.388 385.886 614.81 381.838 622.72 379C630.236 376.416 637.316 372.707 643.72 368" fill="black"/>
<path opacity="0.2" d="M905.22 427.5L903.58 427.39C905.96 433.39 909.4 448.18 895.29 464.29C890.243 469.984 884.099 474.602 877.226 477.867C870.353 481.131 862.892 482.976 855.29 483.29L808.72 485.47L810.21 488.54L858.3 486.26C865.902 485.946 873.363 484.101 880.236 480.837C887.109 477.572 893.253 472.954 898.3 467.26C916.71 446.26 905.22 427.5 905.22 427.5Z" fill="white"/>
<path opacity="0.05" d="M678.46 479H678.31C678.44 481.36 678.67 486.23 678.71 491.58C678.75 486.88 678.6 482.26 678.46 479Z" fill="#00FF00"/>
<path opacity="0.05" d="M735.42 470.36C735.56 470.967 735.717 471.563 735.89 472.15C736.87 471.59 738.28 470.53 735.42 470.36Z" fill="#00FF00"/>
<path opacity="0.2" d="M814.22 493.5C803.97 498.16 726.89 484.59 716.41 482.71C716.2 483.709 715.796 484.657 715.22 485.5C715.22 485.5 803.22 501.5 814.22 496.5C819.88 493.93 821.3 490.56 820.53 487.5C819.95 489.63 818.07 491.75 814.22 493.5Z" fill="white"/>
<path opacity="0.05" d="M678.31 479.01C678.26 478.01 678.22 477.5 678.22 477.5C678.22 477.5 673.13 479.32 678.31 479.01Z" fill="#00FF00"/>
<path opacity="0.2" d="M1038.71 233.25L603.72 311V77.75L1038.71 0V233.25Z" fill="#AB8A47"/>
<path opacity="0.2" d="M948.59 26.91L1029.04 13.04L1030.21 49.09L947.63 62.9L948.59 26.91Z" fill="#927132"/>
<g opacity="0.2">
<path opacity="0.1" d="M792.11 228.18C794.838 227.563 797.638 227.331 800.43 227.49C816.88 227.78 833.95 229.39 850.09 224.49C858.66 221.91 866.35 217.65 875.19 215.82C890.19 212.73 905.19 217.24 919.94 213.48C922.94 212.71 926.61 211.63 928.74 212.79C931.21 214.13 929.46 217.61 932.47 218.49C933.423 218.608 934.361 218.823 935.27 219.13C936.37 219.77 935.68 221.13 934.58 222C927.89 227.43 914.28 223.82 905.9 228.21C904.04 229.21 902.64 230.47 900.9 231.51C898.146 232.93 895.227 234.005 892.21 234.71L845.68 247.71C834.54 250.82 823.25 253.97 811.73 255.34C800.21 256.71 788.26 256.15 779.82 252.24C778.01 251.4 776.33 250.37 775.64 248.97C772.36 242.37 780.52 231.26 792.11 228.18Z" fill="#F9EAE5"/>
<path opacity="0.3" d="M751.06 136.06L789.99 166.84L828.92 197.61L764.98 209.7L701.04 221.78L726.05 178.92L751.06 136.06Z" fill="#F9EAE5"/>
<path opacity="0.3" d="M791.54 128.94L830.47 159.71L869.4 190.49L805.46 202.57L741.52 214.66L766.53 171.8L791.54 128.94Z" fill="#F9EAE5"/>
<path opacity="0.2" d="M851.75 64.91L776.62 208.03L919.1 180.3L971.75 170.35L851.75 64.91Z" fill="#F9EAE5"/>
<path opacity="0.1" d="M971.75 170.35L919.1 180.3L851.75 64.91L971.75 170.35Z" fill="black"/>
<path opacity="0.2" d="M891.36 131.26C891.107 130.328 890.533 129.516 889.738 128.967C888.944 128.418 887.981 128.167 887.02 128.26C887.02 128.26 888.02 120.4 871.82 123.57C871.541 123.003 871.136 122.508 870.636 122.122C870.136 121.736 869.554 121.47 868.934 121.344C868.315 121.219 867.676 121.237 867.065 121.397C866.454 121.558 865.888 121.856 865.41 122.27L864.72 118.62C864.72 118.62 855.84 123.71 865.25 130.97L866.38 136.97C866.408 137.122 866.455 137.27 866.52 137.41C866.571 137.519 866.611 137.633 866.64 137.75C867.07 139.5 870.23 153.37 863.05 158.11C855.36 163.26 850.96 147.39 850.96 147.39C845.96 126.66 836.44 126.74 834.18 127.07C833.91 127.07 833.63 127.13 833.35 127.15C832.29 127.21 829 128.39 827.74 140.34C826.23 154.68 820.74 151.1 820.74 151.1C808.43 144.39 799.74 150.26 799.74 150.26C778.38 162.82 796.54 186.38 800.29 190.85C798.88 197.96 796.03 210.49 793.29 211.01C789.41 211.74 782.15 225.36 801.81 246.54L807.04 245.54C807.04 245.54 790.87 224.42 803.6 213.91C803.324 214.684 802.989 215.436 802.6 216.16C795.47 228.35 819.73 243.04 819.73 243.04L825.55 241.94L812.11 225.01C806.77 218.01 816.73 212.29 816.73 212.29C828.52 202.43 822.45 190.53 822.45 190.53L849.97 185.33C846.57 192.85 841.57 211.33 858.19 235.67L862.07 234.94L858.9 205.42C858.9 205.42 859.9 199.07 866.64 189.49C869.32 201.49 875 222.2 883.58 230.87L889.2 229.81C889.2 229.81 882.35 210.16 882.2 202.81C882.13 199.81 882 196.86 881.73 193.9L880.33 178.42C882.601 176.981 884.38 174.886 885.434 172.413C886.488 169.939 886.765 167.204 886.23 164.57L881.06 137.71C880.987 137.332 880.992 136.943 881.075 136.567C881.157 136.191 881.316 135.836 881.541 135.523C881.765 135.21 882.051 134.947 882.381 134.749C882.711 134.55 883.078 134.422 883.46 134.37L890.09 133.47C890.329 133.428 890.557 133.334 890.756 133.194C890.955 133.055 891.121 132.873 891.242 132.662C891.363 132.451 891.437 132.216 891.457 131.974C891.477 131.732 891.444 131.488 891.36 131.26Z" fill="url(#paint0_linear)"/>
<path opacity="0.2" d="M864.36 180.62C864.36 180.62 870.58 217.68 882.75 229.96L888.27 228.96C888.27 228.96 881.55 209.67 881.37 202.48C881.3 199.56 881.18 196.64 880.91 193.73L878.65 168.73L864.36 180.62Z" fill="#535461"/>
<path opacity="0.05" d="M864.36 180.62C864.36 180.62 870.58 217.68 882.75 229.96L888.27 228.96C888.27 228.96 881.55 209.67 881.37 202.48C881.3 199.56 881.18 196.64 880.91 193.73L878.65 168.73L864.36 180.62Z" fill="#F9EAE5"/>
<path opacity="0.2" d="M801.87 185.93C801.87 185.93 797.87 209.74 794.09 210.46C790.31 211.18 783.15 224.55 802.46 245.34L807.6 244.34C807.6 244.34 789.8 221.1 806.73 211.59C806.72 211.62 809.67 191.74 801.87 185.93Z" fill="#535461"/>
<path opacity="0.05" d="M801.87 185.93C801.87 185.93 797.87 209.74 794.09 210.46C790.31 211.18 783.15 224.55 802.46 245.34L807.6 244.34C807.6 244.34 789.8 221.1 806.73 211.59C806.72 211.62 809.67 191.74 801.87 185.93Z" fill="#F9EAE5"/>
<path opacity="0.2" d="M865.89 137.82L864.78 131.96C855.55 124.84 864.26 119.84 864.26 119.84L865.45 126.12C887.32 119.82 886.15 129.3 886.15 129.3C887.089 129.204 888.032 129.444 888.812 129.976C889.591 130.509 890.158 131.3 890.41 132.21C890.491 132.439 890.52 132.682 890.495 132.924C890.47 133.165 890.391 133.397 890.264 133.604C890.138 133.811 889.967 133.987 889.764 134.12C889.561 134.252 889.33 134.338 889.09 134.37L882.58 135.26C882.205 135.31 881.844 135.437 881.52 135.631C881.196 135.826 880.914 136.085 880.693 136.392C880.473 136.699 880.317 137.048 880.235 137.417C880.154 137.786 880.149 138.169 880.22 138.54L885.29 164.91C885.659 166.797 885.612 168.741 885.152 170.608C884.693 172.475 883.832 174.22 882.63 175.72C880.75 178.03 877.74 180.11 872.94 180.87L822.7 190.37C822.7 190.37 828.7 202.06 817.08 211.73C817.08 211.73 807.3 217.32 812.54 224.22L825.73 240.84L820.02 241.92C820.02 241.92 796.21 227.5 803.21 215.53C805.111 211.726 805.963 207.484 805.68 203.242C805.397 198.999 803.989 194.908 801.6 191.39C801.6 191.39 777.2 164.47 800.43 150.81C800.43 150.81 809 145.05 821.08 151.64C821.08 151.64 826.47 155.15 827.95 141.08C829.18 129.35 832.41 128.19 833.45 128.13C833.72 128.13 833.99 128.13 834.26 128.05C836.48 127.73 845.85 127.65 850.74 148C850.74 148 855.06 163.54 862.59 158.57C869.64 153.92 866.59 140.3 866.12 138.57C866.09 138.456 866.05 138.346 866 138.24C865.947 138.105 865.91 137.964 865.89 137.82Z" fill="#F9EAE5"/>
<path opacity="0.2" d="M851.71 181.63C851.71 181.63 836.25 203.08 857.8 234.63L861.61 233.91L858.5 204.91C858.5 204.91 860.34 192.74 877.03 176.77L851.71 181.63Z" fill="#F9EAE5"/>
<path opacity="0.2" d="M868.343 130.554C870.552 130.137 872.004 128.008 871.587 125.799C871.17 123.59 869.041 122.138 866.832 122.556C864.623 122.973 863.171 125.102 863.588 127.31C864.006 129.519 866.135 130.971 868.343 130.554Z" fill="#535461"/>
<path opacity="0.2" d="M850.45 153.2C855.15 146.05 852.35 145.58 850.53 143.7C849.29 142.42 838.87 141.93 832.38 141.75C832.24 141.25 832.02 140.41 831.76 139.39C831.76 139.39 831.24 137.51 831 136.19H831.41L831.35 135.8L839.35 135.37C846.18 135.09 846.51 132.37 846.51 132.37C846.67 127.7 838.96 132.18 838.96 132.18C837.43 132.93 833.37 132.37 830.2 131.75C830.112 131.087 830.062 130.419 830.05 129.75C830.089 128.716 830.022 127.68 829.85 126.66C829.738 125.779 829.392 124.944 828.85 124.24C826.505 121.437 823.794 118.961 820.79 116.88C820.613 115.115 820.776 113.333 821.27 111.63C822.483 111.007 823.464 110.011 824.069 108.789C824.674 107.567 824.871 106.182 824.63 104.84C824.514 104.225 824.305 103.632 824.01 103.08C825.44 101.18 824.77 97.93 822.79 96.15C822.579 95.96 822.352 95.7893 822.11 95.64C820.826 94.7813 819.27 94.4253 817.74 94.64C816.033 94.9188 814.412 95.5822 813 96.58C811.31 97.7 809.67 99.12 807.65 99.34C806.19 99.5 804.65 99 803.28 99.45C801.47 100.03 800.54 101.96 799.96 103.73C799.38 105.5 798.82 107.45 797.25 108.51C795.88 109.43 794.11 109.42 792.5 109.81C791.376 110.047 790.327 110.556 789.446 111.294C788.566 112.032 787.88 112.975 787.45 114.04C787.133 114.999 787.14 116.036 787.468 116.992C787.797 117.947 788.43 118.769 789.27 119.33C789.535 119.524 789.824 119.682 790.13 119.8C790.472 119.906 790.807 120.036 791.13 120.19C791.219 120.255 791.294 120.337 791.35 120.432C791.407 120.526 791.444 120.631 791.46 120.74C791.465 121.013 791.407 121.283 791.29 121.53C791.104 122.081 791.034 122.665 791.084 123.245C791.133 123.825 791.302 124.388 791.58 124.9C791.765 125.273 792.053 125.586 792.41 125.8C792.511 125.884 792.621 125.955 792.74 126.01C793.91 126.52 795.36 125.37 796.52 125.89H796.61C797.061 126.378 797.45 126.918 797.77 127.5C798.044 127.843 798.384 128.129 798.77 128.34C799.788 129.007 801.018 129.27 802.22 129.08C803.747 128.786 805.203 128.202 806.51 127.36C808.28 126.36 810.21 124.97 810.35 122.99C810.43 121.78 809.8 120.61 809.95 119.41C810.031 118.837 810.263 118.295 810.62 117.84C810.42 118.854 810.35 119.889 810.41 120.92C810.446 121.756 810.546 122.589 810.71 123.41C811.09 125.557 811.863 127.614 812.99 129.48C814.506 131.908 815.617 134.566 816.28 137.35C816.517 138.577 816.537 139.836 816.34 141.07C815.7 144.65 815.77 146.19 815.95 146.84C816.06 147.72 816.35 147.73 816.35 147.73H816.42C816.452 148.337 816.606 148.93 816.874 149.475C817.143 150.02 817.519 150.505 817.98 150.9C827.03 154.64 845.44 149.34 845.44 149.34C841.72 150.65 839.06 160.84 839.06 160.84C838.655 163.058 837.729 165.149 836.36 166.94V166.94C834.36 166.64 832 168.88 830.22 170.19L830.07 170.29C829.897 170.408 829.751 170.563 829.642 170.742C829.534 170.922 829.465 171.122 829.44 171.331C829.415 171.539 829.436 171.751 829.499 171.951C829.563 172.15 829.669 172.334 829.81 172.49L836.89 180.25C840.97 183.14 843.32 183.33 843.98 182.51C844.41 181.97 844.12 181.01 843.12 180.08C840.7 177.83 841.05 170.53 841.12 169.91C842.23 167.41 846.5 159.21 850.45 153.2Z" fill="url(#paint1_linear)"/>
<path opacity="0.2" d="M821.84 110.71C821.84 110.71 819.78 115.44 821.14 119.51L813.47 115.44C813.47 115.44 815.91 114.78 815.4 108.97L821.84 110.71Z" fill="#F9D5C6"/>
<path opacity="0.2" d="M826.98 142.06C826.98 142.06 847.33 142.35 849.06 144.19C850.79 146.03 853.44 146.52 849.06 153.46C844.68 160.4 839.84 170.38 839.84 170.38L834.66 168.01C836.538 166.025 837.781 163.525 838.23 160.83C838.23 160.83 840.69 150.9 844.23 149.65C844.23 149.65 826.86 154.71 818.23 151.01C818.23 151.01 815.93 149.28 817 145.53C818.07 141.78 826.98 142.06 826.98 142.06Z" fill="#353535"/>
<path opacity="0.1" d="M815.68 115.62C815.68 115.62 810.6 114.37 810.97 122.16C811.117 124.983 811.947 127.729 813.39 130.16C815.04 132.98 817.39 137.83 816.7 141.86C815.7 147.96 816.7 147.97 816.7 147.97L819.3 146.39C822.803 144.251 826.825 143.11 830.93 143.09H832.14C832.14 143.09 829.7 134.33 829.65 130.45C829.65 128.61 829.65 126.9 828.54 125.45C825.07 120.97 818.11 115.61 815.68 115.62Z" fill="black"/>
<path opacity="0.2" d="M815.61 115.26C815.61 115.26 810.53 114.01 810.9 121.8C811.047 124.623 811.877 127.369 813.32 129.8C814.97 132.62 817.32 137.47 816.63 141.5C815.63 147.6 816.63 147.61 816.63 147.61L819.23 146.03C822.733 143.891 826.755 142.75 830.86 142.73H832.07C832.07 142.73 829.63 133.97 829.58 130.09C829.58 128.25 829.58 126.54 828.47 125.09C825 120.59 818.04 115.26 815.61 115.26Z" fill="#409CD6"/>
<path opacity="0.1" d="M813.72 121.5C813.93 120.925 814.28 120.412 814.74 120.007C815.199 119.603 815.752 119.32 816.349 119.185C816.946 119.049 817.568 119.066 818.156 119.233C818.745 119.4 819.283 119.712 819.72 120.14C820.504 120.964 821.128 121.927 821.56 122.98C823.97 128.44 825.8 131.84 825.8 131.84C827.349 132.07 828.878 132.424 830.37 132.9C830.6 134.77 830.9 136.71 830.9 136.71L824.41 137.03L815.52 126.49C815.52 126.49 812.81 124.26 813.72 121.5Z" fill="black"/>
<path opacity="0.2" d="M813.64 121.11C813.85 120.535 814.2 120.022 814.66 119.617C815.119 119.213 815.673 118.93 816.269 118.795C816.866 118.659 817.488 118.676 818.076 118.843C818.665 119.01 819.203 119.322 819.64 119.75C820.425 120.574 821.048 121.537 821.48 122.59C823.89 128.05 825.72 131.45 825.72 131.45C825.72 131.45 835.49 134.14 838.01 132.87C838.01 132.87 845.27 128.54 845.15 133.1C845.15 133.1 844.86 135.72 838.4 135.95L824.34 136.64L815.45 126.1C815.45 126.1 812.74 123.83 813.64 121.11Z" fill="#F9EAE5"/>
<path opacity="0.1" d="M814.81 111.54C815 110.63 815.43 110.98 815.29 109.38L821.73 111.12C821.463 111.77 821.242 112.439 821.07 113.12C820.425 113.341 819.751 113.466 819.07 113.49C817.65 113.77 816.02 112.21 814.81 111.54Z" fill="black"/>
<path opacity="0.2" d="M819.383 113.396C822.748 112.761 824.96 109.518 824.324 106.153C823.688 102.788 820.445 100.576 817.081 101.212C813.716 101.848 811.504 105.091 812.14 108.455C812.775 111.82 816.018 114.032 819.383 113.396Z" fill="#F9EAE5"/>
<path opacity="0.1" d="M820.77 105.82C819.67 105.88 818.47 105.53 817.54 106.11C816.61 106.69 816.34 108.28 816.54 109.52C816.74 110.76 817.26 112.01 816.97 113.24C816.58 114.85 814.97 115.84 813.57 116.69C812.17 117.54 810.57 118.69 810.42 120.31C810.29 121.48 810.89 122.63 810.82 123.81C810.7 125.74 808.89 127.07 807.21 128.05C805.997 128.855 804.638 129.416 803.21 129.7C802.483 129.829 801.735 129.764 801.041 129.511C800.348 129.258 799.733 128.827 799.26 128.26C798.81 127.64 798.54 126.81 797.84 126.49C796.74 125.97 795.37 127.09 794.27 126.59C793.883 126.385 793.574 126.058 793.39 125.66C793.126 125.16 792.964 124.612 792.914 124.049C792.865 123.486 792.928 122.919 793.1 122.38C793.207 122.138 793.259 121.875 793.25 121.61C793.16 120.98 792.39 120.77 791.79 120.54C790.803 120.068 790.021 119.252 789.59 118.246C789.16 117.239 789.11 116.11 789.45 115.07C789.835 114.044 790.472 113.131 791.302 112.414C792.132 111.698 793.128 111.201 794.2 110.97C795.72 110.59 797.4 110.61 798.68 109.73C800.16 108.73 800.68 106.8 801.21 105.08C801.74 103.36 802.61 101.48 804.32 100.93C805.64 100.5 807.07 100.99 808.45 100.85C810.36 100.65 811.9 99.27 813.45 98.19C814.773 97.2254 816.304 96.5849 817.92 96.32C818.729 96.1947 819.555 96.246 820.342 96.4704C821.13 96.6948 821.859 97.087 822.48 97.62C825.24 100.13 825.41 105.57 820.77 105.82Z" fill="black"/>
<path opacity="0.2" d="M820.54 105.67C819.44 105.73 818.24 105.38 817.31 105.96C816.38 106.54 816.11 108.13 816.31 109.37C816.51 110.61 817.03 111.86 816.74 113.09C816.35 114.7 814.74 115.69 813.34 116.54C811.94 117.39 810.34 118.54 810.19 120.16C810.06 121.33 810.66 122.48 810.59 123.66C810.47 125.59 808.66 126.92 806.98 127.9C805.767 128.705 804.408 129.266 802.98 129.55C802.256 129.68 801.511 129.617 800.82 129.368C800.128 129.118 799.514 128.692 799.04 128.13C798.59 127.51 798.32 126.68 797.62 126.36C796.52 125.84 795.15 126.96 794.05 126.46C793.663 126.255 793.353 125.928 793.17 125.53C792.906 125.03 792.744 124.482 792.694 123.919C792.645 123.356 792.708 122.789 792.88 122.25C792.987 122.008 793.039 121.745 793.03 121.48C792.94 120.85 792.17 120.64 791.57 120.41C790.583 119.938 789.801 119.122 789.37 118.116C788.94 117.109 788.89 115.98 789.23 114.94C789.615 113.914 790.252 113.001 791.082 112.284C791.912 111.568 792.908 111.071 793.98 110.84C795.5 110.46 797.18 110.48 798.46 109.6C799.94 108.6 800.46 106.67 800.99 104.95C801.52 103.23 802.39 101.35 804.1 100.8C805.42 100.37 806.85 100.86 808.23 100.72C810.14 100.52 811.68 99.14 813.23 98.06C814.553 97.0954 816.084 96.4549 817.7 96.19C818.509 96.0647 819.335 96.116 820.122 96.3404C820.909 96.5648 821.639 96.957 822.26 97.49C825.01 99.98 825.18 105.41 820.54 105.67Z" fill="#2F302F"/>
<path opacity="0.1" d="M822.36 121.35C822.36 121.35 814.36 121.87 815.04 127.46C815.72 133.05 812.26 121.09 812.26 121.09L815.37 117.74L819.81 118.28L822.36 121.35Z" fill="black"/>
<path opacity="0.2" d="M822.15 121.19C822.15 121.19 814.15 121.71 814.83 127.3C815.51 132.89 812.05 120.93 812.05 120.93L815.16 117.58L819.6 118.12L822.15 121.19Z" fill="#409CD6"/>
<path opacity="0.2" d="M829.53 172.11L836.27 179.72C840.15 182.56 842.37 182.72 842.99 181.97C843.39 181.45 843.11 180.51 842.16 179.6C839.75 177.3 840.16 169.6 840.16 169.6C839.206 169.63 838.265 169.368 837.463 168.85C836.661 168.332 836.035 167.582 835.67 166.7C833.76 166.4 831.56 168.57 829.88 169.83L829.74 169.93C829.572 170.052 829.432 170.207 829.329 170.387C829.226 170.567 829.163 170.766 829.143 170.973C829.123 171.179 829.147 171.387 829.214 171.583C829.281 171.779 829.389 171.959 829.53 172.11V172.11Z" fill="#409CD6"/>
<path opacity="0.1" d="M840.17 169.62C840.17 169.62 836.33 170.15 835.68 166.72C836.059 167.592 836.687 168.333 837.486 168.849C838.285 169.365 839.219 169.634 840.17 169.62Z" fill="black"/>
<path opacity="0.1" d="M829.53 172.11L836.27 179.72C840.15 182.56 842.37 182.72 842.99 181.97C841.05 181.37 835.56 178.97 829.9 169.86L829.76 169.96C829.596 170.08 829.458 170.233 829.356 170.409C829.254 170.586 829.191 170.782 829.169 170.984C829.147 171.187 829.168 171.391 829.23 171.585C829.293 171.779 829.395 171.958 829.53 172.11Z" fill="black"/>
<path opacity="0.2" d="M719.19 231.67C719.19 231.67 701.36 247.61 741.99 259.26C741.99 259.26 747.29 242.54 735.92 231.88C733.711 229.8 730.815 228.602 727.781 228.513C724.748 228.425 721.787 229.452 719.46 231.4L719.19 231.67Z" fill="#927132"/>
<path opacity="0.2" d="M719.36 231.37C719.36 231.37 739.09 241.26 741.99 259.26" stroke="#535461" stroke-miterlimit="10"/>
<path opacity="0.2" d="M740.87 259.43C740.87 259.43 730.52 239.21 735.03 222.04C736.977 214.833 736.528 207.189 733.75 200.26C732.41 196.987 730.774 193.844 728.86 190.87" stroke="#535461" stroke-width="2" stroke-miterlimit="10"/>
<path opacity="0.2" d="M731.64 180.08C732.14 182.7 728.82 191.21 728.82 191.21C728.82 191.21 722.63 184.5 722.14 181.88C721.901 180.62 722.173 179.317 722.895 178.258C723.617 177.198 724.73 176.469 725.99 176.23C727.25 175.991 728.553 176.263 729.612 176.985C730.672 177.707 731.401 178.82 731.64 180.08Z" fill="#927132"/>
<path opacity="0.2" d="M742.24 193.13C741.24 195.6 733.83 200.94 733.83 200.94C733.83 200.94 732.28 191.94 733.29 189.47C733.53 188.879 733.885 188.341 734.333 187.887C734.781 187.433 735.314 187.072 735.902 186.824C736.49 186.576 737.121 186.446 737.759 186.442C738.397 186.438 739.029 186.56 739.62 186.8C740.211 187.04 740.749 187.395 741.203 187.843C741.657 188.291 742.018 188.824 742.266 189.412C742.514 190 742.644 190.631 742.648 191.269C742.652 191.907 742.53 192.539 742.29 193.13H742.24Z" fill="#927132"/>
<path opacity="0.2" d="M746.59 218.03C744.47 219.65 735.38 220.53 735.38 220.53C735.38 220.53 738.59 211.98 740.7 210.36C741.717 209.58 743.002 209.237 744.273 209.404C745.544 209.572 746.695 210.238 747.475 211.255C748.255 212.272 748.599 213.557 748.431 214.828C748.263 216.099 747.597 217.25 746.58 218.03H746.59Z" fill="#927132"/>
<path opacity="0.2" d="M745.64 237.61C743.83 239.61 735.02 241.96 735.02 241.96C735.02 241.96 736.73 232.96 738.55 231.04C738.981 230.574 739.5 230.198 740.077 229.933C740.654 229.668 741.277 229.52 741.911 229.495C742.545 229.471 743.178 229.572 743.773 229.793C744.369 230.013 744.915 230.349 745.38 230.78C745.846 231.211 746.222 231.73 746.487 232.307C746.752 232.884 746.9 233.507 746.925 234.141C746.949 234.775 746.848 235.408 746.627 236.003C746.407 236.598 746.071 237.144 745.64 237.61V237.61Z" fill="#927132"/>
<path opacity="0.2" d="M723.95 203.33C726.18 204.8 735.3 205.04 735.3 205.04C735.3 205.04 731.51 196.74 729.3 195.26C728.77 194.91 728.177 194.668 727.553 194.547C726.93 194.427 726.289 194.43 725.666 194.557C725.044 194.685 724.453 194.933 723.927 195.289C723.401 195.644 722.95 196.1 722.6 196.63C722.25 197.16 722.008 197.753 721.887 198.377C721.767 199 721.77 199.642 721.897 200.264C722.025 200.886 722.273 201.477 722.629 202.003C722.984 202.529 723.44 202.98 723.97 203.33H723.95Z" fill="#927132"/>
<path opacity="0.2" d="M723.13 226.26C725.7 227 734.47 224.49 734.47 224.49C734.47 224.49 728.37 217.7 725.8 216.96C724.568 216.606 723.246 216.756 722.125 217.377C721.003 217.997 720.174 219.038 719.82 220.27C719.466 221.502 719.616 222.824 720.237 223.946C720.857 225.067 721.898 225.896 723.13 226.25V226.26Z" fill="#927132"/>
<path opacity="0.2" d="M725.36 248.63C727.76 249.79 736.84 248.81 736.84 248.81C736.84 248.81 731.97 241.09 729.57 239.93C728.415 239.372 727.085 239.295 725.874 239.717C724.663 240.139 723.668 241.025 723.11 242.18C722.552 243.335 722.475 244.665 722.897 245.876C723.319 247.088 724.205 248.082 725.36 248.64V248.63Z" fill="#927132"/>
<path opacity="0.25" d="M731.64 180.08C732.14 182.7 728.82 191.21 728.82 191.21C728.82 191.21 722.63 184.5 722.14 181.88C721.901 180.62 722.173 179.317 722.895 178.258C723.617 177.198 724.73 176.469 725.99 176.23C727.25 175.991 728.553 176.263 729.612 176.985C730.672 177.707 731.401 178.82 731.64 180.08Z" fill="black"/>
<path opacity="0.25" d="M742.24 193.13C741.24 195.6 733.83 200.94 733.83 200.94C733.83 200.94 732.28 191.94 733.29 189.47C733.53 188.879 733.885 188.341 734.333 187.887C734.781 187.433 735.314 187.072 735.902 186.824C736.49 186.576 737.121 186.446 737.759 186.442C738.397 186.438 739.029 186.56 739.62 186.8C740.211 187.04 740.749 187.395 741.203 187.843C741.657 188.291 742.018 188.824 742.266 189.412C742.514 190 742.644 190.631 742.648 191.269C742.652 191.907 742.53 192.539 742.29 193.13H742.24Z" fill="black"/>
<path opacity="0.25" d="M746.59 218.03C744.47 219.65 735.38 220.53 735.38 220.53C735.38 220.53 738.59 211.98 740.7 210.36C741.717 209.58 743.002 209.237 744.273 209.404C745.544 209.572 746.695 210.238 747.475 211.255C748.255 212.272 748.599 213.557 748.431 214.828C748.263 216.099 747.597 217.25 746.58 218.03H746.59Z" fill="black"/>
<path opacity="0.25" d="M745.64 237.61C743.83 239.61 735.02 241.96 735.02 241.96C735.02 241.96 736.73 232.96 738.55 231.04C738.981 230.574 739.5 230.198 740.077 229.933C740.654 229.668 741.277 229.52 741.911 229.495C742.545 229.471 743.178 229.572 743.773 229.793C744.369 230.013 744.915 230.349 745.38 230.78C745.846 231.211 746.222 231.73 746.487 232.307C746.752 232.884 746.9 233.507 746.925 234.141C746.949 234.775 746.848 235.408 746.627 236.003C746.407 236.598 746.071 237.144 745.64 237.61Z" fill="black"/>
<path opacity="0.25" d="M723.95 203.33C726.18 204.8 735.3 205.04 735.3 205.04C735.3 205.04 731.51 196.74 729.3 195.26C728.77 194.91 728.177 194.668 727.553 194.547C726.93 194.427 726.289 194.43 725.666 194.557C725.044 194.685 724.453 194.933 723.927 195.289C723.401 195.644 722.95 196.1 722.6 196.63C722.25 197.16 722.008 197.753 721.887 198.377C721.767 199 721.77 199.642 721.897 200.264C722.025 200.886 722.273 201.477 722.629 202.003C722.984 202.529 723.44 202.98 723.97 203.33H723.95Z" fill="black"/>
<path opacity="0.25" d="M723.13 226.26C725.7 227 734.47 224.49 734.47 224.49C734.47 224.49 728.37 217.7 725.8 216.96C724.568 216.606 723.246 216.756 722.125 217.377C721.003 217.997 720.174 219.038 719.82 220.27C719.466 221.502 719.616 222.824 720.237 223.946C720.857 225.067 721.898 225.896 723.13 226.25V226.26Z" fill="black"/>
<path opacity="0.25" d="M725.36 248.63C727.76 249.79 736.84 248.81 736.84 248.81C736.84 248.81 731.97 241.09 729.57 239.93C728.415 239.372 727.085 239.295 725.874 239.717C724.663 240.139 723.668 241.025 723.11 242.18C722.552 243.335 722.475 244.665 722.897 245.876C723.319 247.088 724.205 248.082 725.36 248.64V248.63Z" fill="black"/>
<path opacity="0.2" d="M760.36 263.26C760.36 263.26 750.01 243.04 754.52 225.87C756.459 218.68 756.014 211.055 753.25 204.14C751.91 200.867 750.274 197.724 748.36 194.75" stroke="#535461" stroke-width="2" stroke-miterlimit="10"/>
<path opacity="0.2" d="M751.17 183.9C751.67 186.52 748.35 195.03 748.35 195.03C748.35 195.03 742.16 188.32 741.67 185.7C741.431 184.44 741.703 183.137 742.425 182.078C743.147 181.018 744.26 180.289 745.52 180.05C746.78 179.811 748.083 180.083 749.142 180.805C750.202 181.527 750.931 182.64 751.17 183.9Z" fill="#927132"/>
<path opacity="0.2" d="M761.77 196.95C760.77 199.42 753.36 204.76 753.36 204.76C753.36 204.76 751.81 195.76 752.82 193.29C753.305 192.096 754.245 191.145 755.432 190.644C756.619 190.143 757.957 190.135 759.15 190.62C760.344 191.105 761.295 192.045 761.796 193.232C762.297 194.419 762.305 195.756 761.82 196.95H761.77Z" fill="#927132"/>
<path opacity="0.2" d="M766.12 221.85C764 223.47 754.91 224.35 754.91 224.35C754.91 224.35 758.12 215.8 760.23 214.18C761.247 213.4 762.532 213.057 763.803 213.224C765.073 213.392 766.225 214.058 767.005 215.075C767.785 216.092 768.129 217.377 767.961 218.648C767.793 219.918 767.127 221.07 766.11 221.85H766.12Z" fill="#927132"/>
<path opacity="0.2" d="M765.17 241.43C763.36 243.43 754.55 245.78 754.55 245.78C754.55 245.78 756.26 236.78 758.08 234.86C758.951 233.92 760.16 233.364 761.441 233.316C762.722 233.267 763.97 233.729 764.91 234.6C765.85 235.471 766.406 236.68 766.455 237.961C766.503 239.242 766.041 240.49 765.17 241.43Z" fill="#927132"/>
<path opacity="0.2" d="M743.48 207.15C745.71 208.62 754.83 208.86 754.83 208.86C754.83 208.86 751.04 200.56 748.83 199.08C748.3 198.73 747.706 198.488 747.083 198.367C746.46 198.247 745.818 198.25 745.196 198.377C744.574 198.505 743.983 198.753 743.457 199.109C742.931 199.464 742.48 199.92 742.13 200.45C741.78 200.98 741.538 201.574 741.417 202.197C741.297 202.821 741.3 203.462 741.427 204.084C741.555 204.706 741.803 205.297 742.159 205.823C742.514 206.349 742.97 206.8 743.5 207.15H743.48Z" fill="#927132"/>
<path opacity="0.2" d="M742.66 230.07C745.23 230.81 754 228.3 754 228.3C754 228.3 747.9 221.51 745.33 220.77C744.098 220.416 742.776 220.566 741.655 221.187C740.533 221.807 739.704 222.848 739.35 224.08C738.996 225.312 739.146 226.634 739.767 227.756C740.387 228.877 741.428 229.706 742.66 230.06V230.07Z" fill="#927132"/>
<path opacity="0.2" d="M744.92 252.45C747.32 253.61 756.4 252.63 756.4 252.63C756.4 252.63 751.53 244.91 749.13 243.75C748.558 243.474 747.937 243.312 747.303 243.276C746.669 243.239 746.034 243.328 745.434 243.537C744.834 243.746 744.281 244.071 743.807 244.494C743.333 244.916 742.946 245.428 742.67 246C742.394 246.572 742.233 247.193 742.196 247.827C742.159 248.461 742.248 249.096 742.457 249.696C742.666 250.296 742.991 250.849 743.414 251.323C743.836 251.797 744.348 252.184 744.92 252.46V252.45Z" fill="#927132"/>
<path opacity="0.1" d="M801.68 78.46L799.92 78.79C800.246 78.7277 800.534 78.5383 800.721 78.2636C800.908 77.9888 800.977 77.6512 800.915 77.325C800.853 76.9988 800.663 76.7107 800.389 76.5241C800.114 76.3375 799.776 76.2677 799.45 76.33L785.2 79.02C784.874 79.0823 784.586 79.2717 784.399 79.5464C784.212 79.8212 784.143 80.1588 784.205 80.485C784.267 80.8112 784.457 81.0993 784.731 81.2859C785.006 81.4725 785.344 81.5423 785.67 81.48L787.43 81.15C787.269 81.1808 787.115 81.2432 786.977 81.3335C786.84 81.4239 786.722 81.5404 786.629 81.6764C786.537 81.8125 786.472 81.9654 786.439 82.1264C786.405 82.2874 786.404 82.4535 786.435 82.615C786.466 82.7765 786.528 82.9304 786.619 83.0678C786.709 83.2052 786.825 83.3235 786.961 83.4159C787.097 83.5083 787.25 83.573 787.411 83.6063C787.572 83.6396 787.738 83.6409 787.9 83.61L785.44 84.08C785.114 84.1423 784.826 84.3317 784.639 84.6064C784.453 84.8812 784.383 85.2188 784.445 85.545C784.507 85.8712 784.697 86.1593 784.971 86.3459C785.246 86.5325 785.584 86.6023 785.91 86.54L800.16 83.85C800.322 83.8191 800.475 83.7568 800.613 83.6664C800.75 83.5761 800.869 83.4596 800.961 83.3236C801.053 83.1875 801.118 83.0346 801.151 82.8736C801.185 82.7125 801.186 82.5465 801.155 82.385C801.124 82.2235 801.062 82.0696 800.971 81.9322C800.881 81.7947 800.765 81.6765 800.629 81.5841C800.493 81.4917 800.34 81.427 800.179 81.3937C800.018 81.3604 799.852 81.3591 799.69 81.39L802.15 80.92C802.312 80.8891 802.465 80.8268 802.603 80.7364C802.74 80.6461 802.859 80.5296 802.951 80.3936C803.043 80.2575 803.108 80.1046 803.141 79.9436C803.175 79.7825 803.176 79.6165 803.145 79.455C803.114 79.2935 803.052 79.1396 802.961 79.0022C802.871 78.8648 802.755 78.7465 802.619 78.6541C802.483 78.5617 802.33 78.497 802.169 78.4637C802.008 78.4304 801.842 78.4291 801.68 78.46Z" fill="#252223"/>
<path opacity="0.1" d="M775.87 102.93L774.11 103.26C774.272 103.229 774.425 103.167 774.563 103.077C774.7 102.986 774.819 102.87 774.911 102.734C775.003 102.598 775.068 102.445 775.101 102.284C775.135 102.123 775.136 101.957 775.105 101.795C775.074 101.634 775.012 101.48 774.921 101.342C774.831 101.205 774.715 101.087 774.579 100.994C774.443 100.902 774.29 100.837 774.129 100.804C773.968 100.77 773.802 100.769 773.64 100.8L759.36 103.49C759.034 103.552 758.746 103.742 758.559 104.017C758.373 104.291 758.303 104.629 758.365 104.955C758.427 105.281 758.617 105.569 758.891 105.756C759.166 105.943 759.504 106.012 759.83 105.95L761.59 105.62C761.428 105.651 761.275 105.713 761.137 105.804C761 105.894 760.881 106.01 760.789 106.146C760.697 106.283 760.632 106.435 760.599 106.596C760.565 106.758 760.564 106.924 760.595 107.085C760.626 107.247 760.688 107.4 760.779 107.538C760.869 107.675 760.985 107.794 761.121 107.886C761.257 107.978 761.41 108.043 761.571 108.076C761.732 108.11 761.899 108.111 762.06 108.08L759.6 108.55C759.438 108.581 759.285 108.643 759.147 108.734C759.01 108.824 758.892 108.94 758.799 109.077C758.707 109.213 758.642 109.365 758.609 109.526C758.575 109.688 758.574 109.854 758.605 110.015C758.636 110.177 758.698 110.33 758.789 110.468C758.879 110.605 758.995 110.724 759.131 110.816C759.267 110.908 759.42 110.973 759.581 111.006C759.742 111.04 759.909 111.041 760.07 111.01L774.36 108.32C774.522 108.289 774.675 108.227 774.813 108.137C774.95 108.046 775.069 107.93 775.161 107.794C775.253 107.658 775.318 107.505 775.351 107.344C775.385 107.183 775.386 107.017 775.355 106.855C775.324 106.694 775.262 106.54 775.171 106.402C775.081 106.265 774.965 106.147 774.829 106.054C774.693 105.962 774.54 105.897 774.379 105.864C774.218 105.83 774.052 105.829 773.89 105.86L776.35 105.39C776.512 105.359 776.665 105.297 776.803 105.207C776.94 105.116 777.059 105 777.151 104.864C777.243 104.728 777.308 104.575 777.341 104.414C777.375 104.253 777.376 104.087 777.345 103.925C777.314 103.764 777.252 103.61 777.161 103.472C777.071 103.335 776.955 103.217 776.819 103.124C776.683 103.032 776.53 102.967 776.369 102.934C776.208 102.9 776.042 102.899 775.88 102.93H775.87Z" fill="#252223"/>
<path opacity="0.1" d="M921.64 71.6701L919.88 72.0001C920.042 71.9692 920.196 71.9068 920.333 71.8165C920.47 71.7262 920.589 71.6097 920.681 71.4737C920.773 71.3376 920.838 71.1847 920.871 71.0237C920.905 70.8626 920.906 70.6966 920.875 70.5351C920.844 70.3735 920.782 70.2197 920.692 70.0823C920.601 69.9448 920.485 69.8266 920.349 69.7342C920.213 69.6418 920.06 69.5771 919.899 69.5438C919.738 69.5105 919.572 69.5092 919.41 69.5401L905.17 72.2601C904.844 72.3224 904.556 72.5118 904.369 72.7865C904.183 73.0612 904.113 73.3989 904.175 73.7251C904.237 74.0513 904.427 74.3394 904.702 74.526C904.976 74.7126 905.314 74.7824 905.64 74.7201L907.4 74.3901C907.239 74.4209 907.085 74.4833 906.947 74.5736C906.81 74.664 906.692 74.7805 906.599 74.9165C906.507 75.0525 906.442 75.2054 906.409 75.3665C906.375 75.5275 906.374 75.6935 906.405 75.8551C906.436 76.0166 906.498 76.1705 906.589 76.3079C906.679 76.4453 906.795 76.5636 906.931 76.656C907.068 76.7484 907.22 76.8131 907.382 76.8464C907.543 76.8797 907.709 76.8809 907.87 76.8501L905.36 77.2601C905.034 77.3224 904.746 77.5118 904.559 77.7865C904.373 78.0612 904.303 78.3989 904.365 78.7251C904.427 79.0513 904.617 79.3394 904.892 79.526C905.166 79.7126 905.504 79.7824 905.83 79.7201L920.08 77.0301C920.242 76.9992 920.395 76.9368 920.533 76.8465C920.67 76.7562 920.789 76.6397 920.881 76.5036C920.973 76.3676 921.038 76.2147 921.071 76.0537C921.105 75.8926 921.106 75.7266 921.075 75.5651C921.044 75.4035 920.982 75.2497 920.892 75.1123C920.801 74.9748 920.685 74.8566 920.549 74.7642C920.413 74.6718 920.26 74.6071 920.099 74.5738C919.938 74.5405 919.772 74.5392 919.61 74.5701L922.07 74.1001C922.232 74.0692 922.386 74.0068 922.523 73.9165C922.66 73.8262 922.779 73.7097 922.871 73.5736C922.963 73.4376 923.028 73.2847 923.061 73.1237C923.095 72.9626 923.096 72.7966 923.065 72.6351C923.034 72.4735 922.972 72.3197 922.882 72.1823C922.791 72.0448 922.675 71.9265 922.539 71.8342C922.403 71.7418 922.25 71.6771 922.089 71.6438C921.928 71.6105 921.762 71.6092 921.6 71.6401L921.64 71.6701Z" fill="#252223"/>
<path opacity="0.3" d="M733.764 115.851C740.965 114.491 745.7 107.55 744.339 100.348C742.978 93.147 736.037 88.4122 728.836 89.7729C721.635 91.1336 716.9 98.0746 718.26 105.276C719.621 112.477 726.562 117.212 733.764 115.851Z" fill="#F9EAE5"/>
<path opacity="0.05" d="M810.48 171.45C810.48 171.45 817.15 177.34 820.26 182.57C823.37 187.8 822.38 189.57 822.38 189.57" fill="black"/>
</g>
<path d="M517 228H349.57C318.65 184.559 315.021 143.017 349.57 104.133C349.57 86.9385 371.933 73 399.519 73H399.519C421.129 73 440.287 81.661 446.999 94.4636L517 228Z" fill="#2F2E41"/>
<path d="M370.22 159.5C370.22 159.5 381.22 177.5 374.22 212.5C367.22 247.5 392.22 247.5 392.22 247.5H442.22L459.22 203.5L435.22 205.5C435.22 205.5 419.22 201.5 426.22 164.5L370.22 159.5Z" fill="#FFB8B8"/>
<path d="M513 228H476.34C453.523 185.548 454.559 110.543 405.519 127.26C374.013 108.4 392.091 182.409 384.256 228H352.375C343.712 183.455 343.591 138.819 353.783 102.521C353.879 100.143 354.473 97.8126 355.524 95.6818C356.575 93.5511 358.06 91.668 359.882 90.1558C361.463 88.6923 363.175 87.3801 364.997 86.2361C376.263 79.0777 383.829 75.0002 400.288 75.0002C409.499 74.9797 418.669 76.2514 427.533 78.7788C428.686 79.1193 429.826 79.4847 430.926 79.8666C432.441 80.3898 433.904 80.9628 435.303 81.5773C442.503 84.6998 448.162 88.9267 450.842 94.2166C481.869 131.536 497.707 178.622 513 228Z" fill="#2F2E41"/>
<path d="M382.8 203.93C381.62 200.54 380.756 197.049 380.22 193.5L337.22 208.5C337.22 208.5 307.72 231 310.72 280C310.72 280 347.22 266.5 363.22 282.5L363.55 285.32C366.934 313.277 379.304 339.379 398.8 359.7C406.8 368.05 414.25 377.47 418.22 386.5C418.22 386.5 446.22 378.5 463.22 356.5C480.22 334.5 561.22 311.5 561.22 311.5C561.22 311.5 518.22 312.5 512.22 297.5C506.22 282.5 486.22 250.5 493.22 225.5C500.22 200.5 504.22 192.5 504.22 192.5C504.22 192.5 463.22 163.5 466.22 154.5L440.22 184.5L428.22 188.5C429.162 190.821 429.641 193.305 429.63 195.81C430.27 223 391.91 229.54 382.8 203.93Z" fill="#F9EAE5"/>
<path d="M406 179C429.196 179 448 160.196 448 137C448 113.804 429.196 95 406 95C382.804 95 364 113.804 364 137C364 160.196 382.804 179 406 179Z" fill="#FFB8B8"/>
<path d="M448 120.251C435.543 103.269 403.055 123.527 364 138V97.7695C396.127 83.6244 414.862 79.5443 436.169 94.2197L448 120.251Z" fill="#2F2E41"/>
<path d="M418.22 259.5C418.22 259.5 370.22 328.5 345.22 348.5C320.22 368.5 313.22 339.5 313.22 339.5V275.5L357.22 270.5L357.69 276.57L358.22 283.5L399.22 239.5C399.22 239.5 440.22 202.5 448.22 224.5C456.22 246.5 418.22 259.5 418.22 259.5Z" fill="#FFB8B8"/>
<path opacity="0.1" d="M452.92 113H392.08C389.827 113 388 114.827 388 117.08V142.92C388 145.173 389.827 147 392.08 147H452.92C455.173 147 457 145.173 457 142.92V117.08C457 114.827 455.173 113 452.92 113Z" fill="black"/>
<path opacity="0.1" d="M388.56 124H364.44C363.092 124 362 125.092 362 126.44V134.56C362 135.908 363.092 137 364.44 137H388.56C389.908 137 391 135.908 391 134.56V126.44C391 125.092 389.908 124 388.56 124Z" fill="black"/>
<path d="M452.92 112H392.08C389.827 112 388 113.827 388 116.08V141.92C388 144.173 389.827 146 392.08 146H452.92C455.173 146 457 144.173 457 141.92V116.08C457 113.827 455.173 112 452.92 112Z" fill="#7679B4"/>
<path d="M452.85 114H400.13C397.877 114 396.05 115.827 396.05 118.08V139.92C396.05 142.173 397.877 144 400.13 144H452.85C455.103 144 456.93 142.173 456.93 139.92V118.08C456.93 115.827 455.103 114 452.85 114Z" fill="#565388"/>
<path d="M388.56 123H364.44C363.092 123 362 124.092 362 125.44V133.56C362 134.908 363.092 136 364.44 136H388.56C389.908 136 391 134.908 391 133.56V125.44C391 124.092 389.908 123 388.56 123Z" fill="#565388"/>
</g>
<defs>
<linearGradient id="paint0_linear" x1="851.382" y1="237.207" x2="830.231" y2="125.267" gradientUnits="userSpaceOnUse">
<stop stop-color="#808080" stop-opacity="0.25"/>
<stop offset="0.54" stop-color="#808080" stop-opacity="0.12"/>
<stop offset="1" stop-color="#808080" stop-opacity="0.1"/>
</linearGradient>
<linearGradient id="paint1_linear" x1="60041.7" y1="31054.2" x2="60041.7" y2="22978.8" gradientUnits="userSpaceOnUse">
<stop stop-color="#808080" stop-opacity="0.25"/>
<stop offset="0.54" stop-color="#808080" stop-opacity="0.12"/>
<stop offset="1" stop-color="#808080" stop-opacity="0.1"/>
</linearGradient>
<clipPath id="clip0">
<rect width="1038.72" height="566.52" fill="white"/>
</clipPath>
</defs>
</svg>
